<svg width="228" height="56" viewBox="0 0 228 56" fill="none" xmlns="http://www.w3.org/2000/svg">
<g clip-path="url(#clip0_2130_41564)">
<path d="M5.96957 17.74C6.29957 17.74 6.57957 17.62 6.80957 17.39C7.03957 17.16 7.14957 16.88 7.14957 16.55C7.14957 16.22 7.03957 15.95 6.80957 15.73C6.57957 15.51 6.29957 15.39 5.96957 15.39C5.63957 15.39 5.36957 15.5 5.14957 15.73C4.92957 15.95 4.80957 16.23 4.80957 16.55C4.80957 16.87 4.91957 17.15 5.14957 17.39C5.36957 17.62 5.64957 17.74 5.96957 17.74Z" fill="white"/>
<path d="M3.05965 17.74C3.38965 17.74 3.66965 17.62 3.89965 17.39C4.11965 17.16 4.23965 16.88 4.23965 16.55C4.23965 16.22 4.12965 15.95 3.89965 15.73C3.67965 15.51 3.39965 15.39 3.05965 15.39C2.71965 15.39 2.45965 15.5 2.22965 15.73C1.99965 15.95 1.88965 16.23 1.88965 16.55C1.88965 16.87 1.99965 17.15 2.22965 17.39C2.45965 17.62 2.73965 17.74 3.05965 17.74Z" fill="white"/>
<path d="M17.67 26.42C17.35 26.42 17.07 26.53 16.84 26.76C16.61 26.98 16.5 27.26 16.5 27.58C16.5 27.9 16.61 28.18 16.84 28.42C17.07 28.65 17.35 28.77 17.67 28.77C17.99 28.77 18.28 28.65 18.51 28.42C18.73 28.19 18.85 27.91 18.85 27.58C18.85 27.25 18.74 26.98 18.51 26.76C18.29 26.54 18.01 26.42 17.67 26.42Z" fill="white"/>
<path d="M20.5799 26.42C20.2599 26.42 19.9799 26.53 19.7599 26.76C19.5399 26.99 19.4199 27.26 19.4199 27.58C19.4199 27.9 19.5299 28.18 19.7599 28.42C19.9899 28.66 20.2599 28.77 20.5799 28.77C20.8999 28.77 21.1999 28.65 21.4199 28.42C21.6399 28.19 21.7599 27.91 21.7599 27.58C21.7599 27.25 21.6399 26.98 21.4199 26.76C21.1999 26.54 20.9099 26.42 20.5799 26.42Z" fill="white"/>
<path d="M43.6298 13.33C43.2098 13.33 42.8898 13.42 42.6598 13.61C42.4298 13.8 42.3198 14.07 42.3198 14.44V23.45H39.0598C38.5698 23.45 38.2598 23.33 38.1198 23.1C37.9798 22.87 37.9198 22.52 37.9198 22.06C37.9198 21.36 37.7598 20.73 37.4398 20.16C37.1198 19.59 36.6698 19.14 36.0898 18.8C35.5098 18.46 34.8198 18.29 34.0198 18.29C33.2698 18.29 32.5998 18.44 31.9998 18.75C31.4098 19.06 30.9298 19.49 30.5898 20.06C30.2398 20.62 30.0698 21.29 30.0698 22.06C30.0698 22.52 29.9898 22.87 29.8298 23.1C29.6698 23.33 29.3698 23.45 28.9498 23.45H21.5198C21.0798 23.45 20.7898 23.34 20.6298 23.13C20.4698 22.92 20.3998 22.52 20.3998 21.93V18.68C20.2198 18.61 20.0298 18.55 19.8198 18.51C19.6098 18.47 19.3998 18.45 19.1898 18.45C18.3298 18.45 17.9098 18.82 17.9098 19.56V21.94C17.9098 22.51 17.8298 22.91 17.6698 23.13C17.5098 23.35 17.2098 23.46 16.7698 23.46H8.68976C8.28977 23.46 8.01976 23.36 7.86977 23.15C7.71977 22.95 7.63977 22.57 7.63977 22.03V18.45H5.07977C3.43977 18.45 2.18977 18.79 1.31977 19.47C0.449766 20.15 0.00976562 21.08 0.00976562 22.26C0.00976562 22.99 0.169766 23.62 0.489766 24.14C0.809766 24.66 1.25977 25.07 1.82977 25.36C2.39977 25.65 3.04977 25.79 3.77977 25.79C4.29977 25.79 4.76977 25.71 5.17977 25.56C5.58977 25.4 5.99977 25.15 6.38977 24.79C6.76977 25.35 7.39977 25.63 8.27977 25.63H17.1898C18.1598 25.63 18.8298 25.34 19.1898 24.75C19.5398 25.33 20.1798 25.63 21.0998 25.63H29.3698C30.0398 25.63 30.6598 25.32 31.2298 24.69C31.6298 25.03 32.0498 25.3 32.4998 25.5C32.9498 25.7 33.4598 25.79 34.0098 25.79C34.5598 25.79 35.0498 25.7 35.5398 25.52C36.0298 25.34 36.4498 25.07 36.8098 24.73C36.9898 24.93 37.2298 25.13 37.5298 25.33C37.8298 25.53 38.1998 25.64 38.6198 25.64H44.7998V13.57C44.6198 13.5 44.4398 13.44 44.2398 13.4C44.0398 13.36 43.8398 13.34 43.6298 13.34V13.33ZM5.10977 21.97C5.10977 22.42 4.98977 22.77 4.74977 23.01C4.50977 23.26 4.18977 23.38 3.77977 23.38C3.36977 23.38 3.05977 23.27 2.84977 23.04C2.63977 22.81 2.52977 22.5 2.52977 22.12C2.52977 21.64 2.69977 21.28 3.04977 21.03C3.39977 20.79 3.89977 20.66 4.55977 20.66H5.10977V21.97ZM35.0498 23.05C34.7798 23.35 34.4298 23.5 33.9898 23.5C33.5498 23.5 33.1998 23.35 32.9298 23.05C32.6598 22.75 32.5298 22.38 32.5298 21.96C32.5298 21.54 32.6598 21.17 32.9298 20.87C33.1998 20.57 33.5498 20.42 33.9898 20.42C34.4298 20.42 34.7798 20.57 35.0498 20.87C35.3198 21.17 35.4498 21.54 35.4498 21.96C35.4498 22.38 35.3198 22.75 35.0498 23.05Z" fill="white"/>
<path d="M70.5396 13.33C70.1196 13.33 69.7996 13.42 69.5696 13.61C69.3396 13.8 69.2296 14.07 69.2296 14.44V23.45H61.2996C60.8496 23.45 60.4896 23.32 60.2096 23.05C59.9296 22.78 59.7996 22.43 59.7996 21.99C59.7996 21.52 59.9596 21.14 60.2696 20.84C60.5796 20.54 60.9896 20.39 61.4896 20.39C61.8096 20.39 62.1296 20.45 62.4396 20.57C62.7496 20.69 63.0096 20.85 63.2096 21.06C63.4796 20.9 63.6896 20.71 63.8396 20.47C63.9896 20.24 64.0596 20 64.0596 19.77C64.0596 19.47 63.9396 19.2 63.6996 18.97C63.4696 18.76 63.1396 18.59 62.7096 18.46C62.2796 18.33 61.8196 18.26 61.3296 18.26C60.5696 18.26 59.8796 18.41 59.2696 18.71C58.6596 19.01 58.1796 19.43 57.8296 19.95C57.4796 20.48 57.3096 21.07 57.3096 21.72C57.3096 22.04 57.3496 22.36 57.4396 22.67C57.5296 22.98 57.6396 23.22 57.7796 23.41H49.0796V13.53C48.8996 13.46 48.7196 13.4 48.5196 13.36C48.3196 13.32 48.1196 13.3 47.9096 13.3C47.4896 13.3 47.1696 13.39 46.9396 13.58C46.7096 13.77 46.5996 14.04 46.5996 14.41V25.61H71.7296V13.54C71.5496 13.47 71.3696 13.41 71.1696 13.37C70.9696 13.33 70.7696 13.31 70.5596 13.31L70.5396 13.33Z" fill="white"/>
<path d="M74.81 13.33C74.39 13.33 74.07 13.42 73.84 13.61C73.61 13.8 73.5 14.07 73.5 14.44V25.64H75.99V13.57C75.81 13.5 75.63 13.44 75.43 13.4C75.23 13.36 75.03 13.34 74.82 13.34L74.81 13.33Z" fill="white"/>
<path d="M87.2098 17.74C87.5398 17.74 87.8298 17.62 88.0498 17.39C88.2698 17.16 88.3898 16.88 88.3898 16.55C88.3898 16.22 88.2698 15.95 88.0498 15.73C87.8298 15.51 87.5398 15.39 87.2098 15.39C86.8798 15.39 86.6098 15.5 86.3898 15.73C86.1698 15.96 86.0498 16.23 86.0498 16.55C86.0498 16.87 86.1598 17.15 86.3898 17.39C86.6198 17.63 86.8898 17.74 87.2098 17.74Z" fill="white"/>
<path d="M84.2999 17.74C84.6299 17.74 84.9099 17.62 85.1399 17.39C85.3599 17.16 85.4799 16.88 85.4799 16.55C85.4799 16.22 85.3699 15.95 85.1399 15.73C84.9199 15.51 84.6399 15.39 84.2999 15.39C83.9599 15.39 83.6999 15.5 83.4699 15.73C83.2399 15.95 83.1299 16.23 83.1299 16.55C83.1299 16.87 83.2399 17.15 83.4699 17.39C83.6999 17.62 83.9799 17.74 84.2999 17.74Z" fill="white"/>
<path d="M98.5699 26.42C98.2499 26.42 97.9699 26.53 97.7399 26.76C97.5099 26.98 97.3999 27.26 97.3999 27.58C97.3999 27.9 97.5099 28.18 97.7399 28.42C97.9699 28.65 98.2499 28.77 98.5699 28.77C98.8899 28.77 99.1799 28.65 99.4099 28.42C99.6299 28.19 99.7499 27.91 99.7499 27.58C99.7499 27.25 99.6399 26.98 99.4099 26.76C99.1899 26.54 98.9099 26.42 98.5699 26.42Z" fill="white"/>
<path d="M101.48 26.42C101.16 26.42 100.88 26.53 100.66 26.76C100.44 26.98 100.32 27.26 100.32 27.58C100.32 27.9 100.43 28.18 100.66 28.42C100.88 28.65 101.16 28.77 101.48 28.77C101.8 28.77 102.09 28.65 102.32 28.42C102.55 28.19 102.66 27.91 102.66 27.58C102.66 27.25 102.55 26.98 102.32 26.76C102.09 26.54 101.81 26.42 101.48 26.42Z" fill="white"/>
<path d="M101.58 25.63V18.67C101.4 18.6 101.21 18.54 101 18.5C100.79 18.46 100.58 18.44 100.37 18.44C99.51 18.44 99.09 18.81 99.09 19.55V23.44H89.91C89.51 23.44 89.24 23.34 89.09 23.13C88.94 22.93 88.86 22.55 88.86 22.01V18.43H86.3C84.66 18.43 83.41 18.77 82.54 19.45C81.67 20.13 81.23 21.06 81.23 22.24C81.23 22.97 81.39 23.6 81.71 24.12C82.03 24.64 82.48 25.05 83.05 25.34C83.62 25.63 84.27 25.77 85 25.77C85.52 25.77 85.99 25.69 86.4 25.54C86.81 25.38 87.22 25.13 87.61 24.77C87.98 25.33 88.62 25.61 89.5 25.61H101.57L101.58 25.63ZM86.35 21.97C86.35 22.42 86.23 22.77 85.99 23.01C85.75 23.26 85.43 23.38 85.02 23.38C84.61 23.38 84.3 23.27 84.09 23.04C83.88 22.81 83.77 22.5 83.77 22.12C83.77 21.64 83.94 21.28 84.29 21.03C84.64 20.79 85.14 20.66 85.8 20.66H86.35V21.97Z" fill="white"/>
<path d="M118.42 17.74C118.75 17.74 119.03 17.62 119.26 17.39C119.49 17.16 119.6 16.88 119.6 16.55C119.6 16.22 119.48 15.95 119.26 15.73C119.04 15.51 118.75 15.39 118.42 15.39C118.09 15.39 117.82 15.5 117.6 15.73C117.38 15.95 117.26 16.23 117.26 16.55C117.26 16.87 117.37 17.15 117.6 17.39C117.82 17.62 118.1 17.74 118.42 17.74Z" fill="white"/>
<path d="M115.51 17.74C115.84 17.74 116.12 17.62 116.35 17.39C116.58 17.16 116.69 16.88 116.69 16.55C116.69 16.22 116.58 15.95 116.35 15.73C116.12 15.51 115.85 15.39 115.51 15.39C115.17 15.39 114.91 15.5 114.68 15.73C114.45 15.96 114.34 16.23 114.34 16.55C114.34 16.87 114.45 17.15 114.68 17.39C114.91 17.63 115.19 17.74 115.51 17.74Z" fill="white"/>
<path d="M127.27 13.33C126.85 13.33 126.53 13.42 126.3 13.61C126.07 13.8 125.96 14.07 125.96 14.44V23.45H120.55C120.82 23.04 120.96 22.53 120.96 21.9C120.96 21.22 120.78 20.61 120.43 20.06C120.08 19.51 119.6 19.08 119 18.76C118.4 18.44 117.74 18.28 117.02 18.28C116.3 18.28 115.63 18.44 115.03 18.77C114.43 19.1 113.96 19.54 113.61 20.08C113.26 20.63 113.09 21.23 113.09 21.89C113.09 22.41 113.22 22.93 113.48 23.44H108.69V18.67C108.51 18.6 108.33 18.54 108.13 18.5C107.93 18.46 107.73 18.44 107.52 18.44C107.1 18.44 106.78 18.53 106.55 18.72C106.32 18.91 106.21 19.18 106.21 19.55V26.13C106.21 26.86 105.86 27.22 105.16 27.22C104.96 27.22 104.73 27.19 104.46 27.14C104.19 27.09 104 27.03 103.87 26.95L103.28 28.81C103.51 28.95 103.82 29.06 104.22 29.15C104.62 29.24 105.01 29.29 105.41 29.29C106.42 29.29 107.22 28.98 107.81 28.38C108.4 27.78 108.69 26.94 108.69 25.89V25.62H128.46V13.55C128.28 13.48 128.1 13.42 127.9 13.38C127.7 13.34 127.5 13.32 127.29 13.32L127.27 13.33ZM118.06 23.01C117.77 23.3 117.42 23.45 117 23.45C116.58 23.45 116.23 23.3 115.94 23.01C115.65 22.72 115.51 22.36 115.51 21.95C115.51 21.54 115.65 21.16 115.94 20.87C116.23 20.58 116.58 20.43 117 20.43C117.42 20.43 117.77 20.58 118.06 20.87C118.35 21.16 118.49 21.52 118.49 21.95C118.49 22.38 118.35 22.72 118.06 23.01Z" fill="white"/>
<path d="M132.14 13.39C131.94 13.35 131.74 13.33 131.53 13.33C131.11 13.33 130.79 13.42 130.56 13.61C130.33 13.8 130.22 14.07 130.22 14.44V25.64H132.71V13.57C132.53 13.5 132.35 13.44 132.15 13.4L132.14 13.39Z" fill="white"/>
<path d="M4.2802 34.96C4.5202 34.96 4.7202 34.88 4.8802 34.71C5.0402 34.54 5.1302 34.34 5.1302 34.11C5.1302 33.88 5.0502 33.68 4.8802 33.52C4.7202 33.36 4.5102 33.28 4.2802 33.28C4.0502 33.28 3.8502 33.36 3.6902 33.52C3.5302 33.68 3.4502 33.88 3.4502 34.11C3.4502 34.34 3.5302 34.54 3.6902 34.71C3.8502 34.88 4.0502 34.96 4.2802 34.96Z" fill="white"/>
<path d="M2.19986 34.96C2.43986 34.96 2.63986 34.88 2.79986 34.71C2.95986 34.54 3.03986 34.34 3.03986 34.11C3.03986 33.88 2.95986 33.68 2.79986 33.52C2.63986 33.36 2.43986 33.28 2.19986 33.28C1.95986 33.28 1.76986 33.36 1.60986 33.52C1.44986 33.68 1.35986 33.88 1.35986 34.11C1.35986 34.34 1.43986 34.54 1.60986 34.71C1.76986 34.88 1.96986 34.96 2.19986 34.96Z" fill="white"/>
<path d="M25.44 38.76C25.24 38.57 25.14 38.32 25.14 38C25.14 37.66 25.25 37.39 25.48 37.18C25.71 36.97 26 36.86 26.35 36.86C26.58 36.86 26.81 36.9 27.03 36.99C27.25 37.08 27.44 37.19 27.58 37.34C27.77 37.23 27.92 37.09 28.03 36.92C28.14 36.75 28.19 36.59 28.19 36.42C28.19 36.2 28.1 36.01 27.93 35.85C27.77 35.7 27.53 35.58 27.22 35.49C26.91 35.4 26.59 35.35 26.23 35.35C25.68 35.35 25.19 35.46 24.76 35.67C24.32 35.89 23.98 36.18 23.73 36.56C23.48 36.94 23.35 37.36 23.35 37.83C23.35 38.06 23.38 38.29 23.45 38.51C23.51 38.73 23.59 38.91 23.69 39.04H6.22C5.94 39.04 5.74 38.97 5.63 38.82C5.52 38.67 5.47 38.41 5.47 38.02V35.45H3.63C2.46 35.45 1.56 35.69 0.94 36.18C0.32 36.67 0 37.34 0 38.18C0 38.7 0.12 39.15 0.35 39.53C0.58 39.91 0.9 40.2 1.31 40.4C1.72 40.61 2.18 40.71 2.7 40.71C3.07 40.71 3.41 40.65 3.7 40.54C3.99 40.43 4.28 40.25 4.57 39.99C4.84 40.39 5.29 40.59 5.93 40.59H28.6V39.02H26.23C25.91 39.02 25.65 38.92 25.45 38.73L25.44 38.76ZM3.66 38C3.66 38.32 3.57 38.57 3.4 38.74C3.23 38.92 3 39 2.71 39C2.42 39 2.2 38.92 2.04 38.75C1.89 38.59 1.81 38.37 1.81 38.09C1.81 37.75 1.94 37.49 2.19 37.31C2.44 37.13 2.8 37.05 3.27 37.05H3.66V37.99V38Z" fill="white"/>
<path d="M34.9501 38.55C34.9501 37.54 34.7001 36.76 34.1901 36.2C33.6801 35.64 32.9801 35.36 32.1001 35.36C31.5301 35.36 31.0401 35.47 30.6201 35.7C30.2001 35.93 29.8801 36.24 29.6501 36.65C29.4201 37.05 29.3101 37.52 29.3101 38.05C29.3101 38.85 29.5601 39.48 30.0701 39.94C30.5801 40.4 31.2601 40.63 32.1201 40.63H33.1601V40.73C33.1601 41.1 33.0501 41.38 32.8401 41.58C32.6201 41.78 32.3201 41.88 31.9401 41.88C31.7701 41.88 31.5801 41.86 31.3801 41.82C31.1801 41.78 31.0001 41.72 30.8501 41.66L30.4201 43.03C30.6101 43.13 30.8601 43.22 31.1501 43.28C31.4401 43.34 31.7401 43.38 32.0401 43.38C32.9701 43.38 33.6801 43.08 34.1901 42.5C34.6901 41.91 34.9501 41.08 34.9501 40V38.57V38.55ZM33.1901 39.05H32.1301C31.8001 39.05 31.5401 38.96 31.3501 38.78C31.1601 38.6 31.0601 38.35 31.0601 38.02C31.0601 37.69 31.1501 37.42 31.3301 37.2C31.5101 36.98 31.7601 36.88 32.0701 36.88C32.4101 36.88 32.6901 37.01 32.8901 37.28C33.0901 37.55 33.1901 37.93 33.1901 38.41V39.05Z" fill="white"/>
<path d="M37.9399 35.4599C37.6399 35.4599 37.4099 35.53 37.2499 35.66C37.0899 35.79 36.9999 35.99 36.9999 36.25V40.97C36.9999 41.49 36.7499 41.75 36.2499 41.75C36.1099 41.75 35.9399 41.7299 35.7499 41.6899C35.5599 41.6499 35.4199 41.61 35.3299 41.56L34.8999 42.8899C35.0599 42.9899 35.2899 43.0699 35.5699 43.1399C35.8499 43.2099 36.1399 43.24 36.4199 43.24C37.1399 43.24 37.7199 43.02 38.1399 42.58C38.5599 42.14 38.7699 41.55 38.7699 40.79V35.61C38.6399 35.56 38.5099 35.52 38.3699 35.49C38.2299 35.46 38.0799 35.45 37.9299 35.45L37.9399 35.4599Z" fill="white"/>
<path d="M63.4102 34.11C63.4102 34.34 63.4902 34.54 63.6502 34.71C63.8102 34.88 64.0102 34.96 64.2402 34.96C64.4702 34.96 64.6802 34.88 64.8402 34.71C65.0002 34.54 65.0902 34.34 65.0902 34.11C65.0902 33.88 65.0102 33.68 64.8402 33.52C64.6802 33.36 64.4702 33.28 64.2402 33.28C64.0102 33.28 63.8102 33.36 63.6502 33.52C63.4902 33.68 63.4102 33.88 63.4102 34.11Z" fill="white"/>
<path d="M62.1598 34.96C62.3998 34.96 62.5998 34.88 62.7598 34.71C62.9198 34.54 62.9998 34.34 62.9998 34.11C62.9998 33.88 62.9198 33.68 62.7598 33.52C62.5998 33.36 62.3998 33.28 62.1598 33.28C61.9198 33.28 61.7298 33.36 61.5698 33.52C61.4098 33.68 61.3198 33.88 61.3198 34.11C61.3198 34.34 61.3998 34.54 61.5698 34.71C61.7298 34.88 61.9298 34.96 62.1598 34.96Z" fill="white"/>
<path d="M63.1999 33.26C63.4399 33.26 63.6399 33.18 63.7999 33.01C63.9599 32.84 64.0399 32.64 64.0399 32.41C64.0399 32.18 63.9599 31.98 63.7999 31.82C63.6399 31.66 63.4399 31.58 63.1999 31.58C62.9599 31.58 62.7699 31.66 62.6099 31.82C62.4499 31.98 62.3599 32.18 62.3599 32.41C62.3599 32.64 62.4399 32.84 62.6099 33.01C62.7699 33.18 62.9699 33.26 63.1999 33.26Z" fill="white"/>
<path d="M79.5502 31.8C79.0902 31.8 78.6302 32.03 78.1802 32.48L75.5902 35.17C75.3802 35.39 75.2202 35.57 75.1102 35.71C75.0002 35.85 74.9202 35.97 74.8902 36.06C74.8602 36.15 74.8302 36.25 74.8302 36.35C74.8302 36.52 74.8702 36.68 74.9602 36.83C75.0502 36.98 75.1502 37.1 75.2802 37.19C75.4102 37.13 75.5802 37.08 75.8102 37.04C76.0402 37 76.2802 36.98 76.5202 36.98C77.2102 36.98 77.7502 37.15 78.1302 37.5C78.5102 37.84 78.7002 38.33 78.7002 38.97V39.06H64.9002C64.5902 39.06 64.3702 38.98 64.2602 38.83C64.1502 38.68 64.0902 38.39 64.0902 37.97V35.64C63.9602 35.59 63.8302 35.55 63.6802 35.52C63.5302 35.49 63.3802 35.48 63.2302 35.48C62.6202 35.48 62.3102 35.75 62.3102 36.28V37.98C62.3102 38.39 62.2502 38.67 62.1402 38.83C62.0202 38.99 61.8102 39.07 61.5002 39.07H46.1202V35.65C45.9902 35.6 45.8602 35.56 45.7202 35.53C45.5802 35.5 45.4302 35.49 45.2802 35.49C44.9802 35.49 44.7502 35.56 44.5902 35.69C44.4302 35.82 44.3402 36.02 44.3402 36.28V41C44.3402 41.52 44.0902 41.78 43.5902 41.78C43.4502 41.78 43.2802 41.76 43.0902 41.72C42.9002 41.68 42.7602 41.64 42.6702 41.59L42.2402 42.92C42.4002 43.02 42.6302 43.1 42.9102 43.17C43.1902 43.24 43.4802 43.27 43.7602 43.27C44.4802 43.27 45.0602 43.05 45.4802 42.61C45.9002 42.17 46.1102 41.58 46.1102 40.82V40.63H61.7902C62.4802 40.63 62.9602 40.42 63.2202 40C63.4702 40.42 63.9302 40.63 64.5902 40.63H80.5402V39.01C80.5402 38.35 80.4102 37.76 80.1602 37.25C79.9102 36.74 79.5602 36.34 79.1202 36.05C78.6802 35.76 78.1802 35.61 77.6102 35.61H77.3902L80.6802 32.44C80.3702 32.03 79.9902 31.82 79.5402 31.82L79.5502 31.8Z" fill="white"/>
<path d="M82.7701 31.8C82.4701 31.8 82.2401 31.87 82.0801 32C81.9201 32.13 81.8301 32.33 81.8301 32.59V40.61H83.6101V31.96C83.4801 31.91 83.3501 31.87 83.2101 31.84C83.0701 31.81 82.9201 31.8 82.7701 31.8Z" fill="white"/>
<path d="M82.7898 30.26C82.6898 30.17 82.6298 30.05 82.6298 29.9C82.6298 29.66 82.7798 29.54 83.0698 29.54C83.1998 29.54 83.3598 29.58 83.5398 29.67C83.6698 29.57 83.7299 29.46 83.7299 29.35C83.7299 29.24 83.6598 29.15 83.5198 29.08C83.3798 29.01 83.1999 28.97 82.9799 28.97C82.6799 28.97 82.4398 29.05 82.2498 29.22C82.0598 29.38 81.9698 29.6 81.9698 29.86C81.9698 30.08 82.0398 30.26 82.1698 30.4H81.5898V30.98H83.8398V30.4H83.2198C83.0298 30.4 82.8898 30.36 82.7798 30.27L82.7898 30.26Z" fill="white"/>
<path d="M111.16 31.8C110.86 31.8 110.63 31.87 110.47 32C110.31 32.13 110.22 32.33 110.22 32.59V39.04H94.3801V38.18C94.3801 37.59 94.2701 37.08 94.0401 36.66C93.8101 36.24 93.4901 35.91 93.0701 35.69C92.6501 35.46 92.1601 35.35 91.6001 35.35C91.0401 35.35 90.5201 35.46 90.0801 35.69C89.6401 35.92 89.3001 36.22 89.0601 36.6C88.8201 36.98 88.7001 37.39 88.7001 37.85C88.7001 38.1 88.7401 38.34 88.8101 38.56C88.8801 38.78 88.9701 38.94 89.0801 39.05H88.9601C88.3901 39.05 87.9801 39.18 87.7201 39.45C87.4601 39.72 87.3301 40.15 87.3301 40.74V43.19H89.1001V41.33C89.1001 41.07 89.1501 40.88 89.2401 40.78C89.3301 40.67 89.5001 40.62 89.7301 40.62H112V31.97C111.87 31.92 111.74 31.88 111.6 31.85C111.46 31.82 111.31 31.81 111.16 31.81V31.8ZM92.6001 39.05H91.5001C91.2201 39.05 90.9901 38.95 90.8001 38.75C90.6101 38.55 90.5101 38.29 90.5101 37.98C90.5101 37.67 90.6001 37.43 90.8001 37.22C90.9901 37.01 91.2601 36.91 91.6001 36.91C91.9401 36.91 92.1801 37.02 92.3501 37.25C92.5201 37.48 92.6001 37.86 92.6001 38.39V39.05Z" fill="white"/>
<path d="M130.37 39.05C130.05 39.05 129.79 38.95 129.59 38.76C129.39 38.57 129.29 38.32 129.29 38C129.29 37.66 129.4 37.39 129.63 37.18C129.86 36.97 130.15 36.86 130.5 36.86C130.73 36.86 130.96 36.9 131.18 36.99C131.4 37.08 131.59 37.19 131.73 37.34C131.92 37.23 132.07 37.09 132.18 36.92C132.28 36.75 132.34 36.59 132.34 36.42C132.34 36.2 132.25 36.01 132.08 35.85C131.92 35.7 131.68 35.58 131.37 35.49C131.06 35.4 130.73 35.35 130.38 35.35C129.83 35.35 129.34 35.46 128.91 35.67C128.47 35.89 128.13 36.18 127.88 36.56C127.63 36.94 127.5 37.36 127.5 37.83C127.5 38.06 127.53 38.29 127.59 38.51C127.65 38.73 127.73 38.91 127.83 39.04H115.04V31.96C114.91 31.91 114.78 31.87 114.64 31.84C114.5 31.81 114.35 31.8 114.2 31.8C113.9 31.8 113.67 31.87 113.51 32C113.35 32.13 113.26 32.33 113.26 32.59V40.61H132.73V39.04H130.36L130.37 39.05Z" fill="white"/>
<path d="M161.75 38.94C160.38 39.83 158.46 40.28 155.99 40.28C153.75 40.28 151.51 39.95 149.27 39.29C147.03 38.63 145.25 37.79 143.92 36.79L138.91 45.23C140.24 46.24 141.95 47.01 143.92 47.87C144.92 48.31 145.89 48.7 147.78 49.26C153.62 47.74 161.84 45.9 171.95 44.41C172.53 43.89 172.98 43.4 173.07 43.27C174.58 41.05 175.33 38.5 175.33 35.62C175.33 33.01 174.69 30.78 173.41 28.93C172.13 27.08 170.3 25.7 167.92 24.78C170.02 23.64 171.66 22.16 172.82 20.36C173.99 18.55 174.57 16.46 174.57 14.08C174.57 11.43 173.84 9.11003 172.38 7.12003C170.92 5.13003 168.84 3.58003 166.14 2.46003C163.44 1.34003 160.26 0.780029 156.61 0.780029C153.5 0.780029 150.68 1.19003 148.14 2.01003C145.6 2.83003 143.6 4.00003 142.14 5.51003C141.55 6.15003 141.11 6.84003 140.84 7.57003C140.57 8.30003 140.43 9.01003 140.43 9.70003C140.43 11.25 140.99 12.6 142.11 13.75C143.23 14.89 144.57 15.6 146.12 15.88C146.67 14.37 147.88 13.09 149.76 12.04C151.63 10.99 153.76 10.46 156.14 10.46C158.24 10.46 159.95 10.9 161.25 11.76C162.55 12.63 163.2 13.86 163.2 15.46C163.2 18.48 161.01 19.99 156.62 19.99H155.93C152 19.99 150.03 21.61 150.03 24.86C150.03 26.69 150.49 28.45 151.4 30.14H156.13C161.25 30.14 163.81 31.79 163.81 35.08C163.81 36.77 163.12 38.06 161.75 38.96V38.94Z" fill="white"/>
<path d="M192.03 47.18C191.79 47.18 191.61 47.25 191.48 47.39C191.35 47.53 191.28 47.71 191.28 47.91C191.28 48.13 191.35 48.3 191.48 48.44C191.61 48.58 191.77 48.65 191.96 48.65H192.72V48.19C192.72 47.82 192.66 47.56 192.55 47.4C192.43 47.24 192.26 47.16 192.04 47.16L192.03 47.18Z" fill="white"/>
<path d="M207.83 47.16C207.61 47.16 207.44 47.23 207.32 47.38C207.2 47.53 207.13 47.72 207.13 47.95C207.13 48.18 207.2 48.35 207.33 48.48C207.46 48.6 207.64 48.67 207.87 48.67H208.61V48.23C208.61 47.89 208.54 47.63 208.4 47.45C208.26 47.26 208.07 47.17 207.83 47.17V47.16Z" fill="white"/>
<path d="M222.87 45.07C174.15 42.57 138.94 55.18 138.94 55.18C172.57 50.06 202.72 53.37 216.22 53.07C225.65 52.86 227.41 46.56 227.41 45.27L222.87 45.08V45.07ZM205.22 49.74H203.4C202.95 49.74 202.63 49.6 202.46 49.31C202.36 49.46 202.21 49.58 201.99 49.68C201.78 49.78 201.55 49.82 201.3 49.82C200.89 49.82 200.52 49.67 200.18 49.36C200.08 49.46 199.96 49.55 199.81 49.63C199.66 49.71 199.49 49.75 199.3 49.75H190.74C190.58 49.75 190.47 49.79 190.4 49.86C190.34 49.93 190.3 50.06 190.3 50.24V51.52H189.08V49.82C189.08 49.41 189.17 49.12 189.35 48.93C189.53 48.74 189.81 48.65 190.21 48.65H190.3C190.23 48.57 190.17 48.46 190.11 48.31C190.06 48.16 190.03 48 190.03 47.82C190.03 47.51 190.11 47.22 190.28 46.96C190.45 46.7 190.68 46.49 190.98 46.33C191.28 46.17 191.63 46.09 192.03 46.09C192.43 46.09 192.76 46.17 193.04 46.33C193.33 46.49 193.55 46.71 193.71 47C193.87 47.29 193.95 47.64 193.95 48.05V48.65H199.08C199.33 48.65 199.49 48.59 199.55 48.47C199.61 48.35 199.64 48.17 199.64 47.94V46.72C199.64 46.54 199.7 46.4 199.81 46.31C199.92 46.22 200.08 46.17 200.29 46.17C200.39 46.17 200.5 46.18 200.6 46.2C200.7 46.22 200.8 46.25 200.89 46.29V48.1C200.89 48.47 201.04 48.65 201.33 48.65C201.5 48.65 201.63 48.59 201.71 48.47C201.79 48.35 201.83 48.16 201.83 47.9V46.72C201.83 46.35 202.04 46.17 202.46 46.17C202.56 46.17 202.67 46.18 202.77 46.2C202.87 46.22 202.97 46.25 203.06 46.29V47.9C203.06 48.19 203.1 48.39 203.18 48.49C203.26 48.59 203.4 48.65 203.62 48.65H204V46.72C204 46.35 204.21 46.17 204.63 46.17C204.73 46.17 204.84 46.18 204.94 46.2C205.04 46.22 205.14 46.25 205.23 46.29V49.74H205.22ZM215.92 48.96C215.74 49.24 215.5 49.45 215.21 49.6C214.92 49.75 214.6 49.82 214.26 49.82C213.99 49.82 213.74 49.77 213.51 49.68C213.29 49.58 213.08 49.45 212.88 49.28C212.6 49.59 212.29 49.74 211.96 49.74H209.81C209.77 50.31 209.57 50.77 209.23 51.12C208.89 51.47 208.42 51.64 207.83 51.64C207.62 51.64 207.42 51.62 207.21 51.57C207.01 51.53 206.84 51.47 206.7 51.4L206.99 50.46C207.09 50.51 207.21 50.54 207.35 50.57C207.49 50.6 207.62 50.61 207.74 50.61C208.01 50.61 208.22 50.54 208.37 50.4C208.51 50.26 208.59 50.04 208.59 49.75H207.87C207.28 49.75 206.8 49.59 206.45 49.27C206.1 48.95 205.92 48.52 205.92 47.97C205.92 47.6 206 47.28 206.16 47C206.32 46.72 206.54 46.5 206.83 46.35C207.12 46.19 207.46 46.11 207.85 46.11C208.46 46.11 208.95 46.3 209.3 46.69C209.65 47.08 209.83 47.62 209.83 48.32V48.67H211.75C211.96 48.67 212.11 48.61 212.19 48.5C212.27 48.38 212.31 48.21 212.31 47.99C212.31 47.61 212.4 47.28 212.57 47C212.74 46.72 212.98 46.51 213.27 46.35C213.56 46.2 213.9 46.12 214.27 46.12C214.67 46.12 215.01 46.2 215.3 46.37C215.59 46.54 215.81 46.76 215.97 47.04C216.13 47.32 216.21 47.63 216.21 47.98C216.21 48.36 216.12 48.69 215.94 48.97L215.92 48.96Z" fill="white"/>
<path d="M214.24 47.16C214.02 47.16 213.85 47.23 213.72 47.38C213.59 47.53 213.52 47.71 213.52 47.92C213.52 48.13 213.59 48.31 213.72 48.46C213.85 48.61 214.03 48.68 214.24 48.68C214.45 48.68 214.63 48.61 214.76 48.46C214.89 48.31 214.96 48.13 214.96 47.92C214.96 47.71 214.89 47.53 214.76 47.38C214.63 47.23 214.45 47.16 214.24 47.16Z" fill="white"/>
<path d="M200.15 16.96C200.13 16.87 200.11 16.81 200.08 16.8C199.99 16.78 199.82 17.24 199.66 17.67C199.66 17.71 199.68 17.73 199.69 17.74C199.78 17.76 199.97 17.34 200.15 16.96ZM200.71 18.42C200.73 18.29 200.95 18.18 200.98 18.06C200.81 18.08 200.65 18.1 200.6 18.09C200.55 18.08 200.51 18.06 200.47 18.03C200.4 18.06 200.35 18.09 200.34 18.12C200.33 18.19 200.53 18.31 200.69 18.42H200.71ZM193.25 18.26C193.34 18.22 193.17 17.57 193.05 17.03C192.91 17.12 192.78 17.28 192.65 17.34C192.59 17.37 192.58 17.5 192.58 17.67C192.8 17.86 193.13 18.32 193.25 18.27V18.26ZM197.35 23.85C197.4 23.79 197.4 23.71 197.41 23.63C197.23 23.54 197.05 23.45 197 23.5C196.94 23.57 197.22 23.97 197.37 24.26C197.37 24.13 197.27 23.93 197.35 23.85ZM194.38 17.3C194.55 17.26 194.75 17.56 194.92 17.52C194.98 17.51 195 17.27 195 16.96C194.86 16.61 194.74 16.32 194.67 16.33C194.51 16.36 194.4 16.78 194.25 16.82C194.18 16.84 194.11 16.86 194.03 16.89C194.17 17.11 194.3 17.31 194.38 17.29V17.3ZM194.52 26.04C194.39 26.07 194.11 25.03 193.97 25.05C193.93 25.05 193.9 25.21 193.88 25.4C194.02 26.12 194.24 28.43 194.35 28.42C194.47 28.41 194.41 26.55 194.53 26.53C194.66 26.51 194.93 27.08 195.06 27.05C195.14 27.03 195.15 26.75 195.18 26.56C195.16 26.58 195.15 26.61 195.13 26.62C195 26.66 194.65 26.01 194.52 26.04ZM192.95 25.64C192.95 25.64 192.87 25.69 192.82 25.78C192.77 26.17 192.66 26.72 192.73 26.74C192.84 26.77 192.82 27.7 192.93 27.72C193 27.73 193.21 26.64 193.37 25.86C193.35 25.83 193.33 25.81 193.31 25.81C193.17 25.81 193.09 25.67 192.95 25.65V25.64ZM198.16 23.51C198.11 23.57 198.04 23.62 197.97 23.67C198.35 23.87 198.8 24.13 198.85 24.06C198.89 24.01 198.67 23.77 198.45 23.53C198.31 23.49 198.19 23.46 198.16 23.5V23.51ZM203.53 33.66C203.44 33.9 203.35 34.14 203.41 34.17C203.52 34.24 203.62 34.29 203.73 34.35C203.85 34.41 204.35 33.57 204.47 33.62C204.52 33.64 204.45 33.92 204.36 34.25C204.6 33.81 204.84 33.39 204.79 33.35C204.68 33.26 204.54 33.28 204.44 33.19C204.36 33.11 203.79 33.55 203.53 33.66ZM200.97 24.45C200.97 24.45 201.18 24.44 201.44 24.49C200.72 24.24 199.55 23.76 199.51 23.84C199.45 23.96 200.16 24.46 200.11 24.59C200.06 24.71 201.05 25.25 201 25.37C201.67 25.46 202.94 25.71 202.97 25.61C203.01 25.47 200.92 24.58 200.97 24.44V24.45ZM196.53 24.64C196.41 24.73 196.34 24.84 196.22 24.92C196.1 25 196.29 25.57 196.16 25.64C196.09 25.68 196.01 25.69 195.92 25.7C196.27 26.23 196.63 26.79 196.69 26.76C196.8 26.7 196.88 26.51 196.99 26.44C197.1 26.37 197.12 26.12 197.22 26.04C197.32 25.97 198.26 26.85 198.36 26.76C198.42 26.71 197.91 26.01 197.46 25.37C197.12 25.09 196.6 24.6 196.52 24.65L196.53 24.64ZM196.48 16.78C196.54 16.78 196.59 16.6 196.65 16.38C196.6 16.28 196.55 16.22 196.5 16.22C196.36 16.23 196.27 16.89 196.14 17.06C196.26 16.99 196.35 16.8 196.49 16.79L196.48 16.78ZM195.41 26.06C195.34 26.09 195.3 26.24 195.26 26.37C195.39 26.37 195.97 27.5 196.08 27.45C196.14 27.42 195.84 26.59 195.6 25.87C195.54 25.95 195.49 26.02 195.42 26.05L195.41 26.06ZM199.96 23.17C200.03 23.05 200.26 22.97 200.33 22.83C200.39 22.72 199.93 22.32 199.99 22.21C200.05 22.09 200.12 21.97 200.18 21.85C200.23 21.73 200.53 21.7 200.59 21.57C200.64 21.45 200.07 21.08 200.12 20.95C200.16 20.85 199.7 20.59 199.61 20.46C199.34 20.43 198.9 20.34 198.86 20.41C198.81 20.52 199.96 21.15 199.91 21.26C199.85 21.38 199.6 21.41 199.54 21.53C199.48 21.65 199.09 21.59 199.03 21.7C198.97 21.81 198.48 21.67 198.42 21.78C198.35 21.9 199.97 23.04 199.9 23.15C199.83 23.26 198.46 22.52 198.39 22.63C198.35 22.69 198.52 22.89 198.69 23.1C198.91 23.17 199.1 23.23 199.13 23.18C199.21 23.06 199.9 23.29 199.97 23.16L199.96 23.17ZM206.92 19.79C206.92 19.74 206.92 19.64 206.94 19.52C206.89 19.4 206.83 19.27 206.77 19.13C206.66 19.28 206.55 19.43 206.5 19.52C206.6 19.66 206.7 19.79 206.79 19.91C206.83 19.86 206.88 19.82 206.92 19.78V19.79ZM206.62 20.77C206.73 20.68 207 20.85 207.12 20.76C207.16 20.73 207.17 20.67 207.18 20.61C207.06 20.7 206.96 20.75 206.93 20.73C206.89 20.69 206.96 20.5 207.06 20.28C207.11 20.34 206.89 20.07 206.8 19.94C206.61 20.13 206.41 20.35 206.24 20.53C206.44 20.7 206.6 20.81 206.63 20.78L206.62 20.77ZM206.28 19.32C206.22 19.36 205.97 19.75 205.75 20.1C205.84 20.18 205.94 20.27 206.03 20.35C206.17 20.1 206.34 19.8 206.5 19.53C206.41 19.41 206.32 19.29 206.24 19.18C206.19 19.22 206.14 19.25 206.1 19.29C206.19 19.3 206.27 19.32 206.29 19.33L206.28 19.32ZM204.79 11.62C204.85 11.65 205.05 11.5 205.26 11.36C205.17 11.38 205.07 11.4 205.02 11.37C204.9 11.32 204.94 10.97 204.83 10.91C204.76 10.87 204.66 10.88 204.57 10.89C204.48 11.11 204.4 11.31 204.45 11.34C204.56 11.4 204.67 11.56 204.79 11.62ZM203.71 19.28C204.21 20.08 204.94 21.19 204.87 21.25C204.76 21.34 203.35 19.85 203.06 19.71C203.04 19.71 203.02 19.71 203.01 19.71C202.9 19.81 202.77 19.93 202.66 20.03C202.58 20.1 202.35 20.07 202.28 20.14C202.19 20.22 203.66 21.87 203.58 21.96C203.5 22.04 202.5 21.23 202.42 21.31C202.33 21.4 201.25 20.63 201.16 20.73C201.07 20.83 202.91 22.57 202.82 22.67C202.74 22.77 202.41 22.64 202.33 22.73C202.25 22.83 201.33 22.3 201.26 22.4C201.18 22.5 202.72 23.71 202.65 23.81C202.58 23.92 200.68 22.81 200.62 22.92C200.54 23.04 202.24 24.2 202.17 24.31C202.11 24.43 202.08 24.5 202.02 24.62C202.51 24.74 203.01 24.85 203.03 24.78C203.09 24.65 201.25 23.58 201.31 23.45C201.37 23.33 203.15 24.11 203.21 23.99C203.27 23.87 202.65 23.38 202.72 23.27C202.79 23.15 204.31 23.93 204.38 23.82C204.45 23.71 204.48 23.62 204.56 23.51C204.64 23.4 203.41 22.39 203.49 22.28C203.57 22.17 204.58 22.77 204.66 22.66C204.75 22.55 203.54 21.4 203.64 21.29C203.73 21.18 204.5 21.65 204.6 21.55C204.69 21.44 204.8 21.36 204.9 21.26C205 21.16 205.12 21.08 205.23 20.98C205.3 20.91 205.09 20.54 204.99 20.28C204.76 20.03 204.46 19.68 204.18 19.36C204.15 19.36 204.12 19.37 204.11 19.36C204 19.3 203.87 19.33 203.75 19.29L203.71 19.28ZM204.21 10.64C204.15 10.58 204.09 10.53 204.02 10.48C203.68 10.79 203.37 11.07 203.42 11.13C203.47 11.19 203.85 10.93 204.23 10.67C204.23 10.67 204.22 10.65 204.21 10.64ZM201.58 33.55C201.65 33.63 202.35 33.04 202.43 33.11C202.52 33.19 202.51 33.33 202.6 33.41C202.7 33.49 202.78 33.56 202.88 33.64C202.98 33.72 203.56 33.04 203.67 33.12C203.7 33.14 203.69 33.21 203.66 33.31C204 32.89 204.59 32.23 204.54 32.18C204.46 32.09 204.46 32.02 204.38 31.93C204.3 31.84 203.76 32.18 203.69 32.08C203.62 31.98 202.7 32.51 202.63 32.41C202.56 32.31 203.41 31.64 203.35 31.54C203.29 31.44 203.48 31.24 203.43 31.14C203.38 31.04 203.06 31.11 203.01 31.01C202.95 30.89 201.25 31.49 201.2 31.37C201.15 31.25 202.65 30.52 202.6 30.39C202.55 30.27 201.57 30.44 201.53 30.32C201.49 30.19 202.31 29.84 202.28 29.71C202.25 29.58 201.47 29.61 201.44 29.48C201.42 29.35 201.24 29.22 201.22 29.08C201.2 28.95 202.31 28.71 202.3 28.57C202.3 28.44 200.9 28.36 200.89 28.23C200.89 28.09 200.23 27.9 200.23 27.76C200.23 27.62 201.42 27.51 201.43 27.37C201.44 27.23 201.95 27.14 201.96 27.01C201.98 26.87 203.12 26.94 203.14 26.8C203.15 26.73 202.33 26.48 201.59 26.25C201.6 26.27 201.62 26.28 201.62 26.29C201.59 26.42 199.95 26.09 199.91 26.22C199.88 26.35 199.46 26.4 199.44 26.53C199.42 26.66 198.72 26.71 198.7 26.84C198.68 26.97 199.7 27.25 199.68 27.38C199.67 27.51 198.5 27.58 198.49 27.71C198.49 27.84 199.05 28.03 199.05 28.16C199.05 28.29 199.46 28.43 199.46 28.56C199.46 28.69 200.47 28.73 200.48 28.86C200.49 28.99 199.99 29.16 200.01 29.28C200.03 29.42 200.77 29.4 200.8 29.53C200.83 29.67 200.34 29.89 200.38 30.03C200.42 30.17 198.67 30.88 198.71 31.01C198.76 31.15 200.19 30.81 200.25 30.94C200.31 31.07 201.3 30.75 201.37 30.88C201.43 31 199.02 32.39 199.09 32.51C199.15 32.63 200.93 31.79 201.01 31.9C201.08 32.01 200.24 32.75 200.31 32.86C200.39 32.97 202.31 31.68 202.4 31.79C202.47 31.88 201.22 33.06 200.86 33.51C200.86 33.56 200.86 33.63 200.85 33.7C201.05 33.68 201.5 33.45 201.58 33.53V33.55ZM203.28 18.49C203.28 18.49 203.28 18.48 203.28 18.47C203.28 18.47 203.28 18.48 203.28 18.49ZM216.82 25.97C216.8 26.03 216.78 26.07 216.75 26.08C216.9 26.19 217.24 26.36 217.52 26.52C217.46 26.34 217.4 26.16 217.34 26.04C217.13 26.01 216.94 25.98 216.82 25.97ZM191.53 26.1C191.53 26.1 191.53 26.1 191.54 26.1H191.53ZM217.03 25.3C217.01 25.39 217.01 25.48 217.01 25.56C217.04 25.61 217.05 25.63 217.07 25.67C217.11 25.7 216.91 25.69 216.66 25.7C216.63 25.7 217.15 25.79 217.12 25.78C217.15 25.84 217.19 25.88 217.23 25.88C217.26 25.88 217.3 25.94 217.34 26.03C217.5 26.06 217.68 26.09 217.84 26.11C217.83 25.78 217.81 25.43 217.81 25.16C217.46 25.19 217.05 25.2 217.03 25.29V25.3ZM191.95 26.29C191.87 26.26 191.8 26.16 191.73 26.09C191.7 26.21 191.69 26.31 191.73 26.33C191.84 26.39 191.97 26.41 192.08 26.45C192.08 26.45 192.1 26.44 192.12 26.43C192.07 26.37 192.01 26.31 191.95 26.29ZM217.81 27.14C217.81 27.14 217.86 26.96 217.86 26.71C217.78 26.65 217.66 26.59 217.53 26.51C217.64 26.82 217.75 27.14 217.81 27.13V27.14ZM203.06 19.71C203.22 19.65 203.56 19.2 203.67 19.26C203.69 19.26 203.7 19.27 203.72 19.28C203.48 18.89 203.3 18.58 203.29 18.49C203.17 18.94 202.93 19.65 203.01 19.71C203.01 19.71 203.04 19.71 203.06 19.71ZM215.03 18.82C215.03 18.82 215.07 18.82 215.08 18.82C215.16 18.87 215.23 18.95 215.3 19.04C215.32 18.91 215.33 18.78 215.28 18.74C215.24 18.71 215.14 18.76 215.03 18.82ZM214.51 15.54C214.51 15.54 214.48 15.56 214.46 15.57C214.35 15.65 214.19 15.73 214.02 15.81C214.17 15.89 214.31 15.94 214.39 15.89C214.47 15.84 214.49 15.71 214.5 15.54H214.51ZM214.77 24.86C214.7 24.83 214.47 25.13 214.26 25.39C214.27 25.4 214.28 25.41 214.29 25.42C214.42 25.5 214.55 25.73 214.68 25.8C214.72 25.82 214.87 25.63 215.06 25.35C215.06 25.31 215.04 25.28 215.02 25.28C214.89 25.23 214.91 24.92 214.77 24.86ZM213.27 29.46C212.77 29.56 212.34 29.65 212.34 29.71C212.34 29.85 213.12 29.91 213.12 30.05C213.12 30.19 212.88 30.28 212.88 30.42C212.88 30.49 213.36 30.59 213.82 30.69V30.68C213.82 30.55 213.89 30.37 213.89 30.24C213.89 30.11 214.13 29.91 214.12 29.78C214.12 29.67 213.44 29.58 213.27 29.48V29.46ZM213.08 26.12C213.05 26.05 212.83 26.06 212.6 26.06C212.28 26.3 211.68 26.64 211.72 26.74C211.77 26.88 211.47 27.1 211.51 27.24C211.52 27.29 211.66 27.29 211.83 27.28C211.99 27.16 212.12 27.05 212.1 27C212.05 26.86 213.13 26.27 213.07 26.13L213.08 26.12ZM211.3 17.72C211.19 17.72 211.06 18.21 210.94 18.43C210.97 18.6 210.99 18.8 211.02 18.93C211.1 18.91 211.19 18.9 211.27 18.89C211.36 18.69 211.46 18.43 211.54 18.35C211.46 18.13 211.4 17.73 211.3 17.72ZM215.8 25.77C215.8 25.77 215.95 25.62 216.07 25.37C215.99 25.36 215.94 25.3 215.86 25.27C215.79 25.55 215.76 25.76 215.8 25.77ZM217.42 22.23C217.42 22.23 217.38 22.18 217.36 22.16C217.07 22.42 216.62 22.77 216.66 22.85C216.7 22.93 217.27 22.74 217.67 22.63C217.56 22.44 217.45 22.27 217.42 22.23ZM227.05 20.58C226.51 17.42 225.38 14.43 223.7 11.71C221.95 8.89 219.69 6.48 216.97 4.55C214.25 2.62 211.22 1.28 207.98 0.57C206.23 0.19 204.45 0 202.68 0C201.29 0 199.88 0.12 198.5 0.36C195.34 0.9 192.35 2.03 189.63 3.71C186.81 5.46 184.4 7.72 182.47 10.44C180.54 13.16 179.2 16.19 178.49 19.43C177.8 22.55 177.73 25.74 178.27 28.91C178.81 32.07 179.94 35.06 181.62 37.78C182.7 39.52 183.97 41.1 185.42 42.51C185.52 42.6 185.62 42.69 185.71 42.77C192.91 42.11 200.75 41.7 209.12 41.7C212.83 41.7 216.58 41.79 220.28 41.95C220.6 41.68 220.91 41.39 221.21 41.1C221.79 40.45 222.33 39.76 222.84 39.04C224.77 36.32 226.11 33.29 226.82 30.05C227.51 26.92 227.58 23.74 227.04 20.57L227.05 20.58ZM206.56 11.38C206.61 11.28 206.64 11.17 206.67 11.07C206.71 10.96 206.8 10.87 206.82 10.78C206.84 10.66 206.6 10.55 206.6 10.44C206.6 10.33 207.07 10.09 207.03 9.98C206.99 9.88 206.58 9.94 206.51 9.85C206.45 9.76 206.56 9.54 206.47 9.46C206.51 9.46 206.43 9.42 206.47 9.43C206.57 9.44 206.71 9.24 206.81 9.26C206.92 9.28 206.97 9.62 207.08 9.65C207.19 9.67 207.36 9.45 207.47 9.48C207.58 9.51 207.57 10.01 207.68 10.04C207.79 10.07 207.98 9.79 208.09 9.83C208.2 9.86 208.18 10.28 208.29 10.31C208.4 10.34 208.71 9.78 208.82 9.82C208.93 9.86 209.02 9.96 209.12 10C209.22 10.04 209.15 10.53 209.25 10.57C209.35 10.61 209.42 10.74 209.52 10.78C209.63 10.83 209.95 10.45 210.06 10.51C210.17 10.56 210.56 10.8 210.67 10.86C210.57 10.92 210.12 11.04 210.03 11.13C209.96 11.2 210.18 11.45 210.12 11.54C210.06 11.62 209.95 11.62 209.91 11.72C209.87 11.82 209.21 11.72 209.19 11.82C209.16 11.92 209.55 12.14 209.54 12.25C209.46 12.25 209.35 12.52 209.27 12.52C209.17 12.52 209.07 12.17 208.97 12.16C208.88 12.16 208.76 12.4 208.66 12.39C208.55 12.38 208.46 12.19 208.34 12.17C208.23 12.15 208.13 12.05 208.01 12.02C207.9 12 207.77 12.02 207.65 11.99C207.56 11.97 207.38 12.29 207.29 12.27C207.18 12.24 207.17 11.82 207.07 11.79C206.96 11.76 206.76 12.03 206.66 11.99C206.54 11.95 206.37 11.75 206.27 11.71C206.32 11.63 206.51 11.49 206.55 11.41L206.56 11.38ZM195.26 12.43C195.26 12.43 195.89 12.57 195.88 12.52C195.95 12.44 195.76 12.35 195.84 12.28C195.92 12.2 195.92 12.04 196 11.96C196.08 11.88 196.24 11.9 196.33 11.82C196.36 11.8 196.36 11.75 196.36 11.7C196.36 11.7 196.34 11.53 196.34 11.52L196.31 11.37C196.19 11.09 195.99 10.68 196.05 10.64C196.13 10.58 196.55 11 196.64 10.94C196.67 10.92 196.71 10.94 196.76 10.95C196.81 10.81 196.84 10.59 196.9 10.58C196.93 10.58 196.96 10.56 197 10.55C196.95 10.36 196.9 10.18 196.95 10.15C197.05 10.09 197.59 10.81 197.7 10.78C197.79 10.65 197.88 10.47 197.96 10.48C198 10.48 198.02 10.56 198.04 10.68C198.15 10.65 198.43 11.01 198.53 10.96C198.63 10.91 198.06 9.34 198.16 9.3C198.27 9.25 198.86 10.35 198.96 10.3C199.07 10.26 199.31 10.62 199.42 10.58C199.53 10.54 199.56 10.35 199.67 10.31C199.78 10.27 199.43 8.77 199.54 8.74C199.65 8.7 199.91 9.11 200.02 9.07C200.13 9.04 200.57 10.31 200.69 10.28C200.8 10.25 200.54 8.58 200.66 8.56C200.78 8.54 200.96 8.76 201.07 8.74C201.19 8.72 201.4 9.27 201.52 9.25C201.64 9.23 201.85 10.02 201.97 10.01C202.09 10 202.01 8.18 202.13 8.17C202.25 8.16 202.49 9.7 202.62 9.69C202.74 9.69 202.84 9.67 202.96 9.66C203.03 9.66 203.1 9.73 203.17 9.78C203.16 9.81 203.14 9.83 203.15 9.85C203.15 9.9 203.41 9.89 203.71 9.86C203.7 9.74 203.7 9.6 203.72 9.47C203.73 9.41 203.75 9.32 203.77 9.24C203.59 9.3 203.45 9.36 203.44 9.41C203.44 9.41 203.41 9.41 203.4 9.41C203.48 8.97 203.59 8.35 203.67 8.35C203.79 8.35 204.66 8.91 204.78 8.92C204.75 8.95 204.66 8.98 204.53 9.02C204.57 9.03 204.6 9.05 204.64 9.05C204.74 9.06 204.83 9.17 204.93 9.19C205.05 9.2 205.14 9.22 205.26 9.24C205.34 9.32 205.46 9.32 205.53 9.4C205.61 9.5 205.75 9.59 205.79 9.7C205.82 9.79 205.59 9.93 205.6 10.03C205.61 10.13 205.79 10.22 205.78 10.33C205.77 10.43 205.78 10.56 205.75 10.67C205.72 10.77 205.78 10.94 205.73 11.04H205.75C205.7 11.12 205.53 11.62 205.47 11.7C205.4 11.79 205.06 11.7 204.98 11.78C204.91 11.86 205.15 12.24 205.08 12.32C205 12.41 204.34 11.93 204.25 12.02C204.17 12.1 204.9 13.07 204.81 13.14C204.73 13.21 203.67 12.15 203.59 12.22C203.5 12.29 203.32 12.2 203.23 12.27C203.14 12.34 203.14 12.48 203.04 12.55C202.94 12.62 203.58 13.78 203.48 13.84C203.38 13.9 202.62 12.87 202.52 12.93C202.42 12.99 202.92 14.09 202.82 14.15C202.72 14.2 202.63 14.32 202.52 14.37C202.42 14.42 201.95 13.73 201.84 13.78C201.74 13.83 202.01 14.75 201.9 14.8C201.78 14.85 201.7 15.08 201.58 15.13C201.51 15.16 201.25 14.65 201.02 14.24C200.95 14.19 200.88 14.14 200.83 14.12C200.62 14.21 200.28 14.41 200.26 14.35C200.22 14.24 200.51 14.02 200.47 13.91C200.45 13.91 200.43 13.9 200.42 13.91C200.31 13.93 200.19 13.73 200.08 13.74C199.97 13.74 199.89 13.97 199.78 13.98C199.67 13.98 199.58 14.74 199.47 14.74C199.35 14.74 199.21 14.56 199.09 14.55C198.97 14.55 198.91 13.83 198.79 13.82C198.67 13.81 198.59 13.71 198.47 13.69C198.35 13.67 198.04 14.69 197.93 14.66C197.81 14.63 197.63 14.64 197.52 14.61C197.4 14.58 197.54 13.71 197.42 13.67C197.3 13.63 197.25 13.5 197.14 13.45C197.03 13.4 196.87 13.51 196.77 13.45C196.66 13.39 196.6 13.29 196.5 13.22C196.4 13.15 195.96 13.54 195.87 13.47C195.77 13.39 196.12 12.84 196.04 12.75C195.95 12.65 195.33 12.98 195.26 12.88C195.19 12.77 195.28 12.54 195.24 12.43H195.26ZM203.27 9.77C203.33 9.67 203.51 9.51 203.55 9.41C203.57 9.63 203.5 9.81 203.4 9.82C203.35 9.82 203.31 9.8 203.27 9.76V9.77ZM218.5 26.16C218.49 26.21 218.19 26.17 217.84 26.11C217.84 26.33 217.86 26.53 217.86 26.7C217.94 26.75 217.98 26.8 217.97 26.82C217.92 26.95 218.89 27.47 218.84 27.6C218.79 27.72 218.43 27.74 218.38 27.87C218.33 27.99 218.28 28.14 218.22 28.26C218.16 28.38 216.19 27.54 216.13 27.66C216.07 27.78 217.28 28.55 217.22 28.66C217.16 28.77 216.64 28.62 216.58 28.74C216.51 28.85 216.73 29.13 216.66 29.24C216.59 29.35 215.38 28.68 215.3 28.79C215.23 28.9 215.3 29.05 215.22 29.16C215.14 29.27 216.8 30.66 216.73 30.77C216.65 30.87 214.75 29.52 214.67 29.62C214.58 29.72 215.86 30.95 215.77 31.05C215.67 31.16 215.53 31.23 215.43 31.34C215.34 31.44 214.63 30.92 214.53 31.01C214.44 31.11 215.15 32.01 215.05 32.1C214.96 32.18 213.95 31.25 213.69 31.14C213.72 31.13 213.74 31.11 213.74 31.1C213.74 31.07 213.75 31.03 213.76 30.99C213.03 30.98 212.16 30.95 212.15 31.03C212.15 31.1 212.38 31.19 212.63 31.29C212.94 31.25 213.39 31.22 213.61 31.17C213.55 31.27 213.6 31.47 213.5 31.55C213.47 31.57 213.53 31.69 213.64 31.87C214.05 32.07 214.61 32.3 214.59 32.39C214.56 32.49 214.27 32.53 214.09 32.6C214.46 33.18 214.86 33.79 214.8 33.84C214.69 33.92 213.54 32.66 213.43 32.74C213.32 32.82 213.17 32.83 213.06 32.91C213.04 32.93 213.05 33 213.08 33.11C213.48 33.37 213.84 33.62 213.81 33.68C213.78 33.73 213.51 33.6 213.2 33.43C213.38 33.86 213.63 34.41 213.55 34.46C213.47 34.51 213.13 34.17 212.89 33.98C212.8 33.98 212.7 33.99 212.7 33.98C212.65 33.95 212.59 33.93 212.57 33.91C212.56 33.93 212.53 34.01 212.53 34.02C212.5 34.13 212.48 34.25 212.36 34.3C212.24 34.36 211.77 33.64 211.65 33.69H211.63C211.69 34.14 211.76 34.6 211.69 34.64C211.74 34.56 211.08 33.43 211.13 33.35C211.13 33.33 211.19 33.35 211.26 33.37C211.17 33.28 211.09 33.21 211.05 33.23C210.92 33.28 211.55 35.31 211.43 35.36C211.3 35.41 210.76 34.28 210.63 34.32C210.5 34.36 210.52 34.87 210.39 34.91C210.26 34.95 210.38 35.94 210.25 35.97C210.12 36.01 209.47 34.01 209.34 34.04C209.21 34.07 209.51 36.04 209.37 36.07C209.24 36.1 209.13 36.45 208.99 36.47C208.86 36.49 208.68 36.47 208.54 36.5C208.4 36.52 207.96 34.35 207.83 34.37C207.69 34.39 207.77 36.49 207.64 36.51C207.5 36.52 207.21 35.73 207.07 35.73C206.97 35.7 206.41 36.7 206.31 36.67C206.2 36.63 207 33.95 206.89 33.91C206.78 33.87 206.52 34.31 206.41 34.27C206.29 34.22 205.78 35.03 205.66 34.97C205.54 34.91 205.52 34.64 205.41 34.58C205.33 34.53 204.92 35 204.63 35.28C204.63 35.28 204.63 35.29 204.61 35.3C204.57 35.33 204.54 35.36 204.51 35.39C204.44 35.91 204.37 36.56 204.3 36.56C204.17 36.56 203.99 36.9 203.86 36.9C203.73 36.9 203.55 36.86 203.42 36.85C203.27 36.85 203.15 35.84 203 35.83C202.87 35.83 202.69 36.09 202.56 36.08C202.43 36.07 202.61 33.5 202.48 33.48C202.35 33.46 202.04 34.79 201.91 34.77C201.8 34.75 201.72 34.64 201.61 34.62C201.49 34.6 201.12 35.9 201 35.87C200.89 35.85 200.89 35.25 200.77 35.22C200.68 35.2 200.82 34.3 200.86 33.76C200.82 33.76 200.79 33.76 200.77 33.74C200.75 33.72 200.8 33.66 200.87 33.57C200.87 33.45 200.87 33.38 200.84 33.37C200.71 33.34 200.53 33.62 200.41 33.59C200.28 33.55 200.05 33.97 199.93 33.93C199.81 33.89 199.47 34.52 199.35 34.48C199.23 34.44 199.22 34.11 199.1 34.06C198.98 34.01 198.72 34.32 198.6 34.27C198.48 34.22 198.27 34.37 198.15 34.32C198.03 34.27 197.55 34.96 197.43 34.9C197.32 34.84 198.29 32.6 198.18 32.54C198.07 32.48 197.19 33.88 197.08 33.82C196.97 33.76 197.74 32.16 197.63 32.1C197.52 32.03 196.91 32.84 196.8 32.77C196.69 32.7 196.81 32.31 196.71 32.24C196.6 32.17 195.28 33.87 195.18 33.8C195.07 33.73 196.54 31.48 196.44 31.4C196.34 31.32 194.33 33.72 194.23 33.64C194.13 33.56 196.05 30.97 195.96 30.89C195.86 30.81 193.91 32.89 193.82 32.81C193.72 32.73 194.22 31.95 194.12 31.87C194.03 31.78 194.17 31.44 194.08 31.35C193.99 31.26 193.28 31.77 193.19 31.67C193.1 31.58 193.52 30.99 193.43 30.89C193.35 30.8 193.39 30.58 193.31 30.48C193.23 30.38 192.6 30.73 192.52 30.63C192.44 30.53 193.55 29.49 193.48 29.39C193.4 29.29 191.77 30.34 191.7 30.23C191.63 30.13 192.45 29.37 192.38 29.27C192.3 29.15 193.17 28.43 193.09 28.31C193.01 28.19 192.39 28.43 192.32 28.31C192.25 28.19 192.37 27.97 192.3 27.85C192.23 27.73 190.54 28.45 190.48 28.32C190.42 28.2 189.88 28.25 189.82 28.12C189.76 27.99 191.64 26.96 191.59 26.83C191.53 26.7 190.4 27.01 190.35 26.87C190.33 26.82 190.57 26.67 190.88 26.5C190.85 26.31 190.86 26.05 190.78 26C190.67 25.93 190.73 25.54 190.63 25.46C190.52 25.38 190.47 25.22 190.37 25.13C190.27 25.04 189.84 25.09 189.75 24.99C189.72 24.87 189.3 24.71 189.27 24.59C189.24 24.46 190.03 24.12 190 23.98C189.97 23.85 189.27 23.84 189.25 23.7C189.22 23.57 190.44 23.21 190.43 23.08C190.41 22.94 188.72 23.03 188.71 22.9C188.69 22.75 190.12 22.43 190.1 22.28C190.09 22.14 190.37 22 190.36 21.86C190.36 21.72 190.06 21.61 190.05 21.47C190.05 21.33 190.47 21.21 190.47 21.07C190.47 21 190.23 20.93 189.97 20.86C190.04 21.06 190.09 21.23 190.07 21.27C190.07 21.21 189.78 20.95 189.5 20.71C189.45 20.69 189.42 20.66 189.42 20.64C189.22 20.46 189.04 20.29 189.05 20.25C189.05 20.18 189.39 20.16 189.73 20.14C189.73 20.1 189.73 20.06 189.73 20.05C189.79 19.96 190.19 20.07 190.26 19.99C190.29 19.95 190.29 19.88 190.28 19.81C189.8 19.5 188.95 19.02 188.99 18.95C189.04 18.87 189.81 19.27 190.28 19.46C190.28 19.46 190.28 19.45 190.29 19.44C190.29 19.44 190.29 19.44 190.29 19.43C190.39 19.47 190.5 19.52 190.6 19.56H190.61C190.64 19.52 190.48 19.32 190.32 19.12C190.32 19.24 190.29 19.34 190.24 19.4C189.94 19.28 189.71 19.19 189.72 19.13C189.75 19 189.47 18.77 189.5 18.64C189.52 18.56 189.83 18.55 190.07 18.52C190.07 18.4 190.04 18.27 190.1 18.22C190.19 18.12 190.14 17.79 190.24 17.69C190.29 17.64 190.74 18.05 191.14 18.41C191.35 18.42 191.53 18.43 191.55 18.37C191.59 18.24 191.41 18.07 191.45 17.94C191.5 17.81 191.15 17.56 191.2 17.44C191.25 17.31 190.39 16.82 190.45 16.69C190.5 16.57 191.98 17.08 192.04 16.96C192.1 16.84 191.04 16.2 191.1 16.08C191.16 15.96 191.37 15.91 191.43 15.79C191.5 15.66 191.04 15.21 191.11 15.08C191.18 14.95 192.15 15.35 192.23 15.23C192.31 15.1 192.64 15.16 192.73 15.04C192.81 14.91 192.26 14.35 192.35 14.23C192.44 14.11 192.45 13.92 192.54 13.81C192.63 13.69 193.04 13.82 193.13 13.71C193.22 13.6 192.44 12.7 192.54 12.59C192.64 12.48 193.01 12.07 193.12 11.96C193.14 12.01 193.52 13.06 193.54 13.11C193.58 13.21 193.69 13.29 193.75 13.39C193.8 13.48 193.7 13.71 193.77 13.8C193.85 13.9 193.55 14.45 193.64 14.54C193.72 14.62 194.55 13.89 194.64 13.97C194.74 14.05 195.15 13.63 195.27 13.71C195.39 13.78 195.1 14.48 195.23 14.55C195.35 14.61 195.27 15.15 195.41 15.21C195.54 15.27 196.06 14.31 196.2 14.36C196.34 14.41 196.12 15.61 196.26 15.65C196.39 15.68 196.72 14.93 196.85 14.96C197 14.99 197.23 14.39 197.38 14.41C197.51 14.43 197.4 16.37 197.54 16.38C197.69 16.4 197.96 15.2 198.11 15.2C198.24 15.2 198.37 15.55 198.51 15.55C198.66 15.55 198.79 14.96 198.95 14.95C199.1 14.95 199.29 15.33 199.44 15.31C199.59 15.29 199.61 14.46 199.76 14.44C199.91 14.41 200.27 15.45 200.43 15.46C200.41 15.5 200.4 15.53 200.4 15.55C200.43 15.68 200.94 15.7 200.97 15.84C200.99 15.96 201.22 16.06 201.28 16.18C201.45 16.11 201.59 16.05 201.64 16.07C201.64 16.1 201.53 16.2 201.37 16.31C201.57 16.43 202.07 16.53 202.07 16.66C202.07 16.8 201.76 17 201.76 17.14C201.76 17.3 201.59 17.89 201.59 18.06C201.56 18.06 201.51 18.06 201.43 18.06C201.35 18.49 201.29 18.86 201.34 18.88C201.41 18.9 201.42 19.07 201.44 19.22C201.44 19.24 201.45 19.25 201.45 19.26C201.46 19.36 201.48 19.45 201.53 19.46C201.65 19.5 202.14 18.52 202.26 18.56C202.4 18.61 202.46 18.81 202.6 18.87C202.72 18.92 203.23 18.1 203.35 18.16C203.39 18.18 203.36 18.32 203.31 18.52C203.36 18.49 203.74 18.91 204.17 19.4C204.33 19.36 204.61 19.1 204.71 19.15C204.78 19.19 205.25 19.23 205.66 19.27C205.64 18.95 205.58 18.53 205.64 18.49C205.69 18.46 205.95 18.8 206.26 19.22C206.34 19.15 206.51 19 206.65 18.87C206.38 18.26 206.14 17.72 206.19 17.69C206.31 17.63 206.77 18.16 206.89 18.1C207.01 18.04 207.57 18.9 207.68 18.85C207.8 18.8 207.72 18.28 207.84 18.23C207.97 18.18 207.89 17.47 208.02 17.43C208.16 17.38 208.68 18.45 208.81 18.41C208.95 18.37 209.3 19.17 209.43 19.14C209.46 19.14 209.47 19 209.45 18.81C209.27 18.59 209.04 18.27 208.91 18.13C209.02 18.18 209.21 18.24 209.41 18.3C209.39 18.16 209.38 18.01 209.36 17.86C209.27 17.87 209.21 17.88 209.2 17.85C209.18 17.72 209 17.6 208.99 17.48C208.99 17.43 209.13 17.37 209.3 17.31C209.28 17.07 209.28 16.89 209.32 16.89C209.38 16.88 209.49 17.04 209.59 17.22C209.79 17.15 209.97 17.08 209.96 17.03C209.96 16.89 208.88 16.79 208.88 16.66C208.88 16.53 210.39 16.43 210.4 16.3C210.4 16.17 209.35 15.97 209.36 15.85C209.38 15.72 209.13 15.53 209.15 15.41C209.17 15.27 209.34 15.13 209.37 15C209.41 14.87 209.33 14.66 209.38 14.54C209.43 14.42 209.22 14.1 209.28 13.99C209.33 13.91 209.72 14.06 209.99 14.14C209.99 14.09 209.97 14.04 209.95 14.02C209.95 14.01 209.98 14 210 14C209.93 13.89 209.87 13.78 209.85 13.72C209.79 13.58 209.64 13.42 209.61 13.28C209.58 13.12 209.76 12.82 209.77 12.67C209.8 12.67 209.84 12.69 209.88 12.72C209.91 12.64 209.95 12.56 209.96 12.49C209.99 12.37 210.12 12.3 210.17 12.19C210.22 12.08 210.26 11.99 210.32 11.89C210.39 11.79 210.35 11.63 210.43 11.55C210.52 11.45 210.62 11.35 210.74 11.29C210.83 11.34 210.97 11.31 211.06 11.36C211.17 11.42 211.31 11.5 211.42 11.57C211.42 11.59 211.41 11.61 211.39 11.64C211.42 11.78 211.41 12.03 211.48 12.08C211.6 12.15 211.98 11.83 212.09 11.9C212.21 11.98 212.06 12.43 212.17 12.51C212.28 12.59 212.68 12.29 212.79 12.37C212.86 12.42 212.82 12.6 212.79 12.76C212.83 12.7 212.87 12.67 212.91 12.67C212.98 12.68 212.99 12.76 213.01 12.91V12.99C213.04 13.17 213.06 13.36 213.14 13.38C213.22 13.45 213.56 13.1 213.64 13.17C213.73 13.25 213.58 13.6 213.67 13.69C213.76 13.78 213.72 13.98 213.81 14.07C213.9 14.16 214.22 14.02 214.3 14.11C214.38 14.2 214.54 14.23 214.63 14.32C214.71 14.42 214.91 14.51 214.99 14.61C214.96 14.73 214.53 14.76 214.48 14.86C214.46 14.9 214.51 15.02 214.59 15.14C214.69 15.01 214.79 14.85 214.85 14.77C214.89 14.74 215.46 15.31 215.41 15.41C215.39 15.41 215.37 15.42 215.35 15.43C215.21 15.43 214.9 15.33 214.68 15.29C214.71 15.35 214.74 15.4 214.76 15.45C214.79 15.47 214.83 15.49 214.85 15.52C214.89 15.58 215.11 15.54 215.32 15.48C215.35 15.48 215.43 15.45 215.44 15.44C215.56 15.41 215.64 15.37 215.66 15.41C215.73 15.51 215.09 16.08 215.16 16.18C215.23 16.29 215.61 16.18 215.67 16.29C215.73 16.4 215.78 16.51 215.84 16.62C215.9 16.73 216.8 16.39 216.86 16.5C216.92 16.61 217.09 16.69 217.14 16.81C217.19 16.92 216.97 17.18 217.02 17.3C217.07 17.41 216.03 17.99 216.08 18.11C216.13 18.22 216.18 18.32 216.23 18.43C216.27 18.55 216.42 18.61 216.46 18.73C216.5 18.86 217.09 18.81 217.13 18.94C217.17 19.06 216.66 19.32 216.7 19.45C216.73 19.57 217.59 19.48 217.62 19.61C217.65 19.73 217.88 19.82 217.91 19.95C217.93 20.04 217.36 20.24 217.05 20.39C216.94 20.42 216.74 20.53 216.54 20.64H216.57C216.66 20.74 216.16 21.36 216.25 21.46C216.26 21.47 216.28 21.48 216.3 21.49C216.31 21.42 216.49 21.22 216.68 21.02C216.79 20.9 216.9 20.78 216.99 20.67C216.91 20.64 216.86 20.61 216.86 20.59C216.86 20.56 216.92 20.51 217.05 20.45C217.1 20.43 217.12 20.44 217.13 20.45C217.15 20.47 217.11 20.54 217.01 20.66C217.07 20.68 217.14 20.69 217.2 20.71C217.33 20.74 217.45 20.76 217.46 20.81C217.46 20.87 217.28 20.96 217.11 21.03C216.92 21.11 216.74 21.2 216.75 21.26C216.75 21.29 216.78 21.31 216.83 21.34C217.08 21.24 217.37 21.12 217.4 21.17C217.43 21.22 217.34 21.36 217.25 21.49C217.25 21.49 217.27 21.52 217.27 21.53C217.27 21.56 217.24 21.59 217.18 21.63C217.18 21.63 217.17 21.69 217.18 21.71C217.21 21.76 217.18 21.84 217.13 21.92C217.12 21.95 217.1 21.98 217.09 22.01C217.12 22.01 217.14 22.03 217.16 22.04C217.37 21.96 217.56 21.91 217.58 21.95C217.59 21.97 217.57 22 217.53 22.05C217.75 22.03 217.94 22.03 217.95 22.07C217.97 22.11 217.99 22.37 218 22.65C218.01 22.65 218.03 22.65 218.03 22.65C218.03 22.67 218.03 22.69 218 22.72C218.01 23 218.02 23.28 218.01 23.41L217.98 23.32C217.95 23.24 217.87 23.08 217.77 22.91C217.55 23.07 217.29 23.24 217.32 23.31C217.32 23.45 218.33 23.56 218.32 23.71C218.32 23.86 217.39 23.95 217.37 24.1C217.36 24.25 218.21 24.5 218.19 24.64C218.17 24.79 218.28 24.98 218.25 25.13C218.25 25.16 218.2 25.18 218.12 25.2C218.2 25.33 218.28 25.48 218.35 25.61C218.66 25.61 219.01 25.61 219.08 25.57C219.01 25.65 218.69 26.06 218.68 26.06C218.63 26.08 218.5 25.87 218.35 25.61C218.11 25.61 217.9 25.61 217.88 25.66C217.85 25.79 218.5 26.11 218.46 26.23L218.5 26.16ZM215.5 19.86C215.5 19.86 215.53 19.89 215.54 19.91C215.64 19.73 215.71 19.57 215.67 19.54C215.62 19.49 215.54 19.47 215.47 19.44C215.46 19.61 215.43 19.81 215.5 19.86ZM217.07 21.94C216.94 21.89 216.81 21.84 216.81 21.79C216.81 21.73 216.94 21.66 217.07 21.6L217.15 21.56C217.15 21.56 217.19 21.48 217.22 21.44C217.16 21.4 217.07 21.37 216.98 21.34C216.93 21.32 216.86 21.3 216.82 21.28C216.68 21.34 216.5 21.41 216.39 21.43C216.5 21.45 216.64 21.45 216.7 21.52C216.78 21.63 216.33 22.08 216.4 22.19C216.44 22.25 216.77 22.12 217.08 22.01C217.08 21.99 217.08 21.98 217.08 21.95L217.07 21.94ZM215.82 20.78C215.82 20.78 215.87 20.78 215.9 20.78C215.91 20.61 216.3 20.09 216.22 20C216.19 19.96 216 20.09 215.8 20.23C215.89 20.33 215.73 20.69 215.82 20.79V20.78ZM211.51 15.95C211.64 16.02 211.94 15.84 212.06 15.89C212.08 15.89 212.1 15.89 212.12 15.87C212.05 15.75 212 15.57 211.9 15.53C211.77 15.47 211.9 14.97 211.76 14.89C211.65 14.82 211.55 14.78 211.45 14.7C211.4 14.66 211.25 14.74 211.1 14.82C210.97 15.06 210.85 15.28 210.89 15.32C210.99 15.4 211.02 15.65 211.12 15.71C211.23 15.78 211.39 15.9 211.51 15.96V15.95ZM210.58 12.62C210.7 12.57 210.93 12.6 211.02 12.53C211.09 12.47 211.07 12.33 211.07 12.21C211.04 12.26 211 12.3 210.96 12.33C210.87 12.41 210.77 12.48 210.65 12.53C210.53 12.58 210.39 12.53 210.25 12.56C210.15 12.58 210.05 12.67 209.94 12.72C210.05 12.81 210.17 12.93 210.23 12.92C210.37 12.9 210.45 12.67 210.57 12.63L210.58 12.62ZM208.22 20.58C208.09 20.47 208.26 19.97 208.15 19.83C208.07 20.14 207.25 21.37 207.36 21.45C207.42 21.49 207.88 21.04 208.34 20.6C208.29 20.6 208.25 20.6 208.22 20.58ZM212.24 17.44C212.11 17.42 211.83 18.34 211.68 18.48C211.71 18.58 211.73 18.71 211.76 18.82C211.88 18.8 211.97 18.8 212.02 18.8C212.18 18.51 212.39 18 212.48 18.02C212.58 18.05 212.56 18.53 212.61 18.74C212.61 18.41 212.66 17.96 212.59 17.94C212.46 17.91 212.38 17.46 212.25 17.44H212.24ZM208.16 21.66C208.16 21.66 208.22 21.66 208.28 21.62C208.62 21.11 209.09 20.47 209.02 20.4C208.99 20.38 208.95 20.37 208.89 20.38C208.56 20.9 208.09 21.59 208.16 21.66ZM212.04 13.15C212.18 13.13 212.27 13.22 212.42 13.22C212.52 13.22 212.65 12.91 212.77 12.73C212.7 12.69 212.62 12.65 212.55 12.65C212.41 12.65 212.25 12.57 212.11 12.58C211.96 12.59 211.79 12.69 211.65 12.72C211.52 12.75 211.54 13.17 211.45 13.31C211.53 13.31 211.62 13.36 211.71 13.34C211.84 13.3 211.9 13.17 212.04 13.15ZM214.27 19.29C214.37 19.29 214.63 19.07 214.84 18.92C214.77 18.95 214.71 18.98 214.68 18.96C214.63 18.93 214.45 19.11 214.28 19.29H214.27ZM212.74 33.82C212.82 33.73 213.01 33.65 213.06 33.55C213.09 33.49 212.61 33.22 212.22 32.99C212.2 33.11 212.6 33.69 212.6 33.83C212.61 33.83 212.68 33.83 212.74 33.83V33.82ZM210.38 20.45C210.44 20.44 210.5 20.42 210.57 20.4C210.54 20.31 210.6 20.19 210.63 20.08C210.27 20.28 209.99 20.45 210.01 20.49C210.17 20.44 210.32 20.39 210.36 20.44L210.38 20.45ZM210.25 23.43C210.25 23.43 210.46 23.41 210.68 23.32C210.61 23.24 210.55 23.16 210.49 23.08C210.33 23.26 210.23 23.4 210.26 23.44L210.25 23.43ZM210.02 17.17C209.92 17.17 209.97 17.5 209.95 17.67C209.95 17.8 209.88 18.12 209.82 18.41C209.95 18.46 210.05 18.5 210.06 18.54C210.06 18.54 210.06 18.55 210.06 18.56C210.05 18.56 210.03 18.56 210.02 18.56C209.95 18.56 209.9 18.68 209.84 18.79C209.81 18.81 209.79 18.83 209.77 18.85C209.77 18.87 209.78 18.88 209.8 18.88L209.84 18.92C209.85 18.89 209.96 18.75 209.98 18.71C210.08 18.63 210.11 18.71 210.13 18.65C210.13 18.65 210.1 18.58 210.11 18.58C210.28 18.37 210.47 18.14 210.48 18.19C210.5 18.29 210.22 18.47 210.15 18.59C210.24 18.64 210.33 18.71 210.42 18.71C210.51 18.71 210.62 18.35 210.72 18.15C210.64 17.79 210.55 17.3 210.47 17.31C210.34 17.31 210.17 17.17 210.04 17.18L210.02 17.17ZM210.5 13.16C210.41 13.23 210.35 13.38 210.27 13.46C210.22 13.51 210.23 13.74 210.23 13.94C210.43 13.96 210.67 14 210.71 13.96C210.78 13.87 210.66 13.65 210.74 13.57C210.8 13.52 210.74 13.29 210.7 13.11C210.62 13.11 210.54 13.13 210.5 13.17V13.16ZM210.65 14.72C210.53 14.6 210.17 14.63 210.07 14.51C210.03 14.47 210.01 14.39 209.99 14.3C209.88 14.42 209.8 14.53 209.84 14.58C209.93 14.7 210.24 14.74 210.35 14.87C210.38 14.9 210.51 14.84 210.67 14.74C210.67 14.74 210.67 14.73 210.66 14.72H210.65ZM210.34 22.14C210.34 22.14 210.42 22.18 210.49 22.18C210.49 22 210.72 21.69 210.64 21.55C210.61 21.5 210.49 21.5 210.32 21.53C210.32 21.59 210.32 21.65 210.34 21.69C210.39 21.79 210.3 21.99 210.29 22.14C210.31 22.14 210.32 22.14 210.33 22.14H210.34Z" fill="white"/>
<path d="M203.55 9.44C203.51 9.53 203.33 9.69 203.27 9.79C203.31 9.82 203.36 9.85 203.4 9.85C203.5 9.84 203.57 9.65 203.55 9.44Z" fill="#60985A"/>
<path d="M196.34 11.54C196.34 11.54 196.35 11.73 196.36 11.72C196.36 11.77 196.36 11.82 196.33 11.84C196.24 11.92 196.08 11.9 196 11.98C195.92 12.06 195.92 12.22 195.84 12.3C195.76 12.37 195.96 12.46 195.88 12.54C195.89 12.58 195.25 12.41 195.26 12.45C195.3 12.56 195.21 12.8 195.28 12.9C195.35 13 195.97 12.68 196.06 12.77C196.14 12.86 195.79 13.41 195.89 13.49C195.98 13.56 196.41 13.18 196.52 13.24C196.62 13.31 196.68 13.41 196.79 13.47C196.89 13.52 197.05 13.42 197.16 13.47C197.27 13.52 197.32 13.65 197.44 13.69C197.56 13.73 197.42 14.6 197.54 14.63C197.66 14.66 197.83 14.65 197.95 14.68C198.06 14.7 198.37 13.69 198.49 13.71C198.61 13.73 198.69 13.83 198.81 13.84C198.93 13.85 198.99 14.57 199.11 14.57C199.23 14.57 199.37 14.76 199.49 14.76C199.6 14.76 199.69 14.01 199.8 14C199.91 14 199.99 13.77 200.1 13.76C200.21 13.75 200.33 13.95 200.44 13.93C200.46 13.93 200.48 13.93 200.49 13.93C200.53 14.03 200.24 14.26 200.28 14.37C200.3 14.43 200.64 14.23 200.85 14.14C200.91 14.15 200.98 14.21 201.04 14.26C201.27 14.68 201.52 15.18 201.6 15.15C201.72 15.1 201.8 14.87 201.92 14.82C202.03 14.77 201.75 13.85 201.86 13.8C201.97 13.75 202.43 14.44 202.54 14.39C202.65 14.34 202.74 14.23 202.84 14.17C202.94 14.11 202.44 13.01 202.54 12.95C202.64 12.89 203.41 13.92 203.5 13.86C203.6 13.8 202.96 12.63 203.06 12.57C203.15 12.5 203.15 12.36 203.25 12.29C203.34 12.22 203.52 12.31 203.61 12.24C203.7 12.17 204.75 13.24 204.83 13.16C204.92 13.09 204.19 12.11 204.27 12.04C204.36 11.95 205.02 12.43 205.1 12.34C205.17 12.26 204.93 11.89 205 11.81C205.08 11.72 205.42 11.81 205.49 11.73C205.55 11.65 205.72 11.15 205.77 11.07C205.77 11.07 205.76 11.07 205.75 11.07C205.8 10.97 205.74 10.8 205.77 10.7C205.81 10.59 205.78 10.46 205.8 10.36C205.81 10.25 205.63 10.16 205.62 10.06C205.61 9.95999 205.84 9.81999 205.81 9.72999C205.77 9.61999 205.63 9.52999 205.55 9.42999C205.49 9.34999 205.36 9.34999 205.28 9.26999C205.17 9.24999 205.07 9.23999 204.95 9.21999C204.85 9.20999 204.76 9.08999 204.66 9.07999C204.62 9.07999 204.59 9.06999 204.55 9.04999C204.68 9.00999 204.78 8.97999 204.8 8.94999C204.68 8.94999 203.81 8.37999 203.69 8.37999C203.61 8.37999 203.5 8.99999 203.42 9.43999C203.42 9.42999 203.46 9.43999 203.46 9.43999C203.46 9.37999 203.61 9.32999 203.79 9.26999C203.77 9.34999 203.75 9.43999 203.74 9.49999C203.71 9.61999 203.71 9.76999 203.73 9.87999C203.43 9.90999 203.18 9.91999 203.17 9.86999C203.17 9.84999 203.17 9.82999 203.19 9.79999C203.12 9.74999 203.05 9.67999 202.98 9.67999C202.86 9.67999 202.76 9.69999 202.64 9.70999C202.52 9.70999 202.27 8.17999 202.15 8.18999C202.03 8.19999 202.11 10.01 201.99 10.03C201.87 10.04 201.66 9.24999 201.54 9.26999C201.42 9.28999 201.2 8.73999 201.09 8.75999C200.97 8.77999 200.79 8.55999 200.68 8.57999C200.57 8.60999 200.83 10.27 200.71 10.3C200.59 10.33 200.15 9.05999 200.04 9.08999C199.93 9.11999 199.67 8.71999 199.56 8.75999C199.45 8.78999 199.8 10.29 199.69 10.33C199.58 10.37 199.55 10.56 199.44 10.6C199.33 10.64 199.08 10.27 198.98 10.32C198.87 10.36 198.28 9.26999 198.18 9.31999C198.07 9.36999 198.65 10.93 198.55 10.98C198.45 11.03 198.17 10.68 198.06 10.7C198.04 10.59 198.01 10.51 197.98 10.51C197.9 10.51 197.81 10.69 197.72 10.81C197.61 10.84 197.07 10.12 196.97 10.18C196.92 10.2 196.97 10.39 197.02 10.58C196.98 10.59 196.95 10.6 196.92 10.61C196.85 10.61 196.82 10.84 196.78 10.97C196.73 10.95 196.69 10.94 196.66 10.96C196.57 11.02 196.16 10.6 196.07 10.66C196.01 10.7 196.21 11.11 196.33 11.39L196.36 11.54H196.34ZM203.43 11.16C203.38 11.1 203.69 10.81 204.03 10.51C204.09 10.56 204.16 10.62 204.22 10.67C204.22 10.67 204.23 10.69 204.24 10.7C203.86 10.96 203.49 11.23 203.43 11.16ZM204.79 11.65C204.67 11.59 204.55 11.44 204.45 11.37C204.4 11.34 204.48 11.14 204.57 10.92C204.66 10.92 204.77 10.9 204.83 10.94C204.93 11 204.9 11.35 205.02 11.4C205.07 11.43 205.17 11.4 205.26 11.39C205.05 11.54 204.85 11.68 204.79 11.65Z" fill="#60985A"/>
<path d="M200.76 33.71C200.76 33.71 200.81 33.73 200.85 33.73C200.85 33.66 200.85 33.6 200.86 33.54C200.79 33.63 200.75 33.69 200.76 33.71Z" fill="#2D8DBB"/>
<path d="M204.64 34.7C204.64 34.7 204.61 34.74 204.59 34.8C204.65 34.74 204.67 34.7 204.64 34.7Z" fill="#2D8DBB"/>
<path d="M213 12.86C212.98 12.71 212.97 12.63 212.9 12.62C212.86 12.62 212.83 12.65 212.78 12.71C212.8 12.55 212.84 12.37 212.78 12.32C212.67 12.23 212.27 12.54 212.16 12.46C212.05 12.38 212.2 11.93 212.08 11.85C211.97 11.77 211.59 12.1 211.47 12.03C211.39 11.98 211.41 11.73 211.38 11.59C211.4 11.57 211.41 11.54 211.41 11.52C211.3 11.46 211.16 11.37 211.05 11.31C210.96 11.26 210.82 11.29 210.73 11.24C210.61 11.31 210.52 11.4 210.42 11.5C210.34 11.58 210.37 11.74 210.31 11.84C210.25 11.94 210.21 12.03 210.16 12.14C210.11 12.25 209.98 12.32 209.95 12.44C209.94 12.51 209.89 12.59 209.87 12.67C209.83 12.64 209.79 12.62 209.76 12.62C209.76 12.77 209.57 13.07 209.6 13.23C209.62 13.37 209.78 13.53 209.84 13.67C209.86 13.73 209.92 13.84 209.99 13.95C209.97 13.95 209.95 13.96 209.94 13.97C209.96 14 209.97 14.04 209.98 14.09C209.71 14.01 209.32 13.86 209.27 13.94C209.21 14.05 209.42 14.37 209.37 14.49C209.32 14.61 209.4 14.82 209.37 14.95C209.33 15.08 209.17 15.22 209.15 15.36C209.13 15.48 209.38 15.67 209.36 15.8C209.35 15.93 210.4 16.12 210.4 16.25C210.4 16.38 208.88 16.48 208.88 16.61C208.88 16.74 209.95 16.84 209.96 16.98C209.96 17.1 208.97 17.31 208.98 17.43C208.99 17.55 209.17 17.68 209.19 17.8C209.21 17.91 209.86 17.64 209.88 17.75C210.01 17.73 209.88 17.17 210.01 17.16C210.14 17.15 210.31 17.29 210.44 17.29C210.57 17.29 210.71 18.53 210.83 18.53C210.97 18.53 211.14 17.71 211.28 17.72C211.42 17.72 211.48 18.48 211.62 18.5C211.76 18.52 212.08 17.41 212.22 17.44C212.35 17.47 212.43 17.91 212.56 17.94C212.68 17.97 212.51 19.03 212.63 19.07C212.75 19.1 212.83 19.14 212.94 19.18C213.06 19.22 213.52 18.31 213.64 18.36C213.75 18.41 213.83 18.55 213.94 18.61C214.07 18.67 213.75 19.55 213.87 19.61C213.98 19.67 214.55 18.9 214.65 18.96C214.75 19.02 215.15 18.67 215.26 18.74C215.36 18.81 215.19 19.29 215.29 19.37C215.39 19.44 215.55 19.46 215.65 19.54C215.74 19.62 215.15 20.46 215.24 20.55C215.32 20.62 216.11 19.93 216.19 20.01C216.28 20.1 215.78 20.75 215.86 20.84C215.94 20.92 216.75 20.38 217.01 20.3C217.32 20.15 217.89 19.95 217.87 19.86C217.84 19.74 217.61 19.64 217.58 19.52C217.55 19.4 216.69 19.49 216.66 19.36C216.63 19.24 217.13 18.97 217.09 18.85C217.05 18.72 216.46 18.77 216.42 18.64C216.38 18.52 216.23 18.46 216.19 18.34C216.15 18.22 216.09 18.13 216.04 18.02C215.99 17.91 217.04 17.33 216.98 17.21C216.93 17.1 217.15 16.84 217.1 16.72C217.04 16.61 216.88 16.52 216.82 16.41C216.76 16.3 215.86 16.63 215.8 16.53C215.74 16.42 215.69 16.31 215.63 16.2C215.57 16.09 215.18 16.2 215.12 16.09C215.05 15.98 215.69 15.42 215.62 15.32C215.6 15.28 215.52 15.32 215.4 15.36C215.4 15.37 215.31 15.4 215.28 15.4C215.07 15.46 214.85 15.5 214.81 15.44C214.79 15.41 214.76 15.39 214.72 15.37C214.7 15.32 214.67 15.27 214.64 15.21C214.85 15.25 215.17 15.35 215.31 15.35C215.33 15.35 215.35 15.34 215.37 15.33C215.43 15.23 214.86 14.67 214.81 14.69C214.75 14.77 214.65 14.93 214.55 15.05C214.48 14.93 214.42 14.82 214.44 14.77C214.49 14.67 214.92 14.63 214.95 14.52C214.87 14.42 214.67 14.32 214.59 14.23C214.51 14.14 214.35 14.11 214.26 14.02C214.18 13.93 213.85 14.07 213.77 13.98C213.68 13.89 213.72 13.69 213.63 13.6C213.54 13.51 213.7 13.17 213.6 13.08C213.52 13.01 213.18 13.36 213.1 13.29C213.02 13.27 213.01 13.08 212.98 12.9V12.82H212.97L213 12.86ZM211.64 12.74C211.78 12.7 211.96 12.61 212.1 12.6C212.23 12.6 212.4 12.67 212.54 12.67C212.61 12.67 212.69 12.71 212.76 12.75C212.64 12.93 212.51 13.25 212.41 13.24C212.27 13.24 212.17 13.15 212.03 13.17C211.89 13.19 211.83 13.32 211.7 13.36C211.61 13.39 211.52 13.33 211.44 13.33C211.52 13.19 211.51 12.77 211.64 12.74ZM210.22 13.96C210.22 13.76 210.22 13.54 210.26 13.48C210.34 13.4 210.4 13.25 210.49 13.18C210.54 13.14 210.61 13.13 210.69 13.12C210.72 13.3 210.79 13.53 210.73 13.58C210.65 13.65 210.77 13.88 210.7 13.97C210.66 14.01 210.42 13.97 210.22 13.95V13.96ZM210.25 12.58C210.39 12.55 210.54 12.61 210.65 12.55C210.77 12.5 210.87 12.43 210.96 12.35C211 12.31 211.03 12.27 211.07 12.23C211.07 12.35 211.09 12.5 211.02 12.55C210.93 12.62 210.7 12.59 210.58 12.64C210.47 12.68 210.38 12.91 210.24 12.93C210.18 12.94 210.06 12.82 209.95 12.73C210.06 12.68 210.16 12.59 210.26 12.57L210.25 12.58ZM210.34 14.89C210.23 14.77 209.92 14.72 209.83 14.6C209.79 14.55 209.87 14.44 209.98 14.32C210 14.41 210.03 14.48 210.06 14.53C210.16 14.65 210.52 14.62 210.64 14.74C210.64 14.74 210.64 14.75 210.65 14.76C210.49 14.86 210.36 14.92 210.33 14.89H210.34ZM212.05 15.91C211.92 15.86 211.63 16.04 211.5 15.97C211.39 15.91 211.23 15.8 211.12 15.72C211.02 15.65 210.99 15.41 210.89 15.33C210.85 15.3 210.97 15.07 211.1 14.84C211.25 14.76 211.4 14.68 211.45 14.72C211.56 14.8 211.65 14.84 211.76 14.91C211.89 14.99 211.77 15.49 211.9 15.55C211.99 15.59 212.05 15.77 212.11 15.89C212.09 15.91 212.06 15.92 212.05 15.91ZM214.38 15.9C214.3 15.95 214.16 15.9 214.01 15.82C214.17 15.74 214.33 15.66 214.45 15.58C214.46 15.58 214.48 15.56 214.5 15.55C214.5 15.72 214.47 15.85 214.39 15.9" fill="#212A5C"/>
<path d="M218 23.27C217.93 23.06 217.48 22.33 217.41 22.24C217.36 22.18 217.28 22.09 217.22 22.04C217.13 22.05 217.07 22.04 217.06 22.03C217.06 22.01 217.05 21.99 217.06 21.95C216.93 21.9 216.8 21.85 216.8 21.8C216.8 21.74 216.93 21.67 217.06 21.61L217.14 21.57C217.14 21.57 217.18 21.49 217.21 21.45C217.15 21.41 217.06 21.38 216.97 21.35C216.92 21.33 216.85 21.31 216.81 21.29C216.62 21.37 216.32 21.49 216.28 21.44C216.24 21.4 216.46 21.17 216.66 20.95C216.77 20.83 216.88 20.71 216.97 20.6C216.89 20.57 216.84 20.54 216.84 20.52C216.84 20.49 216.9 20.44 217.03 20.38C217.08 20.36 217.1 20.37 217.11 20.38C217.13 20.4 217.09 20.47 216.99 20.59C217.05 20.61 217.12 20.62 217.18 20.64C217.31 20.67 217.43 20.69 217.44 20.74C217.44 20.8 217.26 20.88 217.09 20.96C216.9 21.04 216.72 21.13 216.73 21.19C216.73 21.22 216.76 21.24 216.81 21.27C217.06 21.17 217.35 21.05 217.38 21.1C217.41 21.15 217.32 21.29 217.23 21.42V21.43C217.23 21.43 217.25 21.45 217.25 21.46C217.25 21.49 217.22 21.52 217.16 21.56C217.16 21.56 217.15 21.62 217.16 21.64C217.19 21.69 217.16 21.77 217.11 21.85C217.1 21.88 217.08 21.91 217.07 21.94C217.13 21.96 217.19 21.99 217.24 22.01C217.56 21.97 217.91 21.95 217.93 22.01C217.97 22.1 218.01 23.08 218 23.36L217.97 23.27" fill="#212A5C"/>
<path d="M189.72 20.12C189.38 20.14 189.05 20.16 189.04 20.23C189.04 20.28 189.21 20.44 189.41 20.62C189.41 20.64 189.44 20.67 189.49 20.69C189.76 20.94 190.06 21.19 190.06 21.25C190.08 21.21 190.03 21.04 189.96 20.84C190.21 20.91 190.46 20.98 190.46 21.05C190.46 21.19 190.04 21.31 190.04 21.45C190.04 21.59 190.34 21.7 190.35 21.84C190.35 21.98 190.08 22.12 190.09 22.26C190.11 22.42 188.68 22.73 188.7 22.88C188.72 23.02 190.4 22.93 190.42 23.06C190.44 23.19 189.22 23.55 189.25 23.68C189.27 23.81 189.97 23.82 190 23.96C190.03 24.1 189.24 24.43 189.28 24.57C189.31 24.69 189.72 24.85 189.76 24.97C189.85 25.07 190.28 25.02 190.38 25.11C190.48 25.2 190.53 25.36 190.64 25.44C190.75 25.52 190.68 25.91 190.79 25.98C190.9 26.05 190.83 26.6 190.95 26.66C191.06 26.71 191.58 25.99 191.69 26.03C191.8 26.07 191.87 26.26 191.98 26.3C192.11 26.34 192.24 26.6 192.38 26.64C192.51 26.67 192.85 25.63 192.98 25.65C193.12 25.67 193.2 25.81 193.34 25.81C193.48 25.81 193.62 26.5 193.75 26.49C193.89 26.49 193.85 25.07 193.99 25.05C194.12 25.03 194.4 26.07 194.54 26.04C194.67 26.01 195.02 26.66 195.15 26.62C195.28 26.58 195.3 26.11 195.43 26.06C195.56 26.01 195.63 25.79 195.76 25.73C195.88 25.67 196.07 25.7 196.2 25.63C196.32 25.56 196.14 24.99 196.26 24.91C196.38 24.83 196.45 24.72 196.57 24.63C196.67 24.55 197.7 25.61 197.8 25.52C197.9 25.44 197.4 24.62 197.5 24.52C197.6 24.43 196.94 23.59 197.04 23.49C197.13 23.39 197.8 23.86 197.89 23.76C197.98 23.66 198.12 23.6 198.2 23.49C198.29 23.38 198.97 23.72 199.05 23.61C199.13 23.5 198.33 22.74 198.41 22.62C198.48 22.51 199.85 23.25 199.92 23.14C199.99 23.03 198.38 21.89 198.44 21.78C198.5 21.67 198.99 21.82 199.05 21.7C199.11 21.58 199.5 21.65 199.56 21.53C199.62 21.41 199.87 21.38 199.93 21.26C199.98 21.15 198.83 20.53 198.88 20.41C198.93 20.3 199.8 20.55 199.84 20.43C199.88 20.32 200.78 20.53 200.82 20.41C200.87 20.27 201.21 20.2 201.26 20.06C201.3 19.92 201.22 19.71 201.26 19.57C201.3 19.44 201.41 19.31 201.45 19.19C201.49 19.05 200.88 18.73 200.91 18.6C200.94 18.47 200.36 18.23 200.38 18.11C200.38 18.07 200.44 18.04 200.51 18.02C200.55 18.05 200.6 18.07 200.64 18.08C200.75 18.11 201.48 17.96 201.59 17.99C201.59 17.82 201.77 17.23 201.76 17.08C201.76 16.93 202.08 16.74 202.07 16.6C202.07 16.47 201.56 16.36 201.37 16.25C201.52 16.14 201.64 16.04 201.64 16.01C201.59 16 201.45 16.05 201.28 16.12C201.22 16 200.99 15.9 200.97 15.78C200.94 15.64 200.43 15.62 200.4 15.49C200.4 15.47 200.4 15.44 200.43 15.4C200.27 15.4 199.92 14.36 199.76 14.39C199.61 14.42 199.59 15.25 199.44 15.26C199.29 15.28 199.1 14.89 198.95 14.9C198.79 14.91 198.67 15.5 198.51 15.5C198.37 15.5 198.25 15.15 198.11 15.15C197.95 15.15 197.69 16.34 197.54 16.33C197.41 16.32 197.52 14.38 197.38 14.36C197.23 14.33 197 14.94 196.85 14.91C196.72 14.88 196.39 15.63 196.26 15.6C196.12 15.56 196.34 14.36 196.2 14.31C196.06 14.26 195.54 15.22 195.41 15.16C195.28 15.1 195.35 14.57 195.23 14.5C195.1 14.43 195.39 13.74 195.27 13.66C195.15 13.59 194.75 14 194.65 13.92C194.56 13.85 193.73 14.57 193.65 14.49C193.55 14.4 193.85 13.85 193.78 13.75C193.71 13.66 193.81 13.43 193.76 13.34C193.7 13.24 193.59 13.16 193.55 13.06C193.53 13.01 193.15 11.96 193.13 11.91C193.03 12.02 192.65 12.42 192.55 12.54C192.45 12.65 193.24 13.54 193.14 13.66C193.04 13.77 192.64 13.64 192.55 13.76C192.46 13.88 192.44 14.06 192.36 14.18C192.27 14.3 192.83 14.86 192.74 14.99C192.66 15.11 192.33 15.06 192.24 15.18C192.16 15.3 191.2 14.9 191.12 15.03C191.04 15.16 191.51 15.6 191.44 15.73C191.38 15.85 191.16 15.9 191.11 16.02C191.05 16.14 192.1 16.78 192.04 16.9C191.98 17.02 190.5 16.51 190.45 16.63C190.4 16.75 191.25 17.25 191.2 17.38C191.15 17.5 191.49 17.76 191.45 17.88C191.41 18.01 191.59 18.18 191.55 18.31C191.54 18.36 191.36 18.36 191.14 18.35C190.74 17.99 190.29 17.58 190.24 17.63C190.14 17.72 190.2 18.06 190.1 18.15C190.05 18.2 190.07 18.33 190.07 18.45C189.83 18.48 189.52 18.49 189.5 18.57C189.47 18.7 189.75 18.93 189.72 19.06C189.71 19.12 189.94 19.2 190.24 19.33C190.28 19.27 190.32 19.17 190.32 19.05C190.48 19.25 190.64 19.44 190.61 19.49C190.61 19.49 190.61 19.49 190.6 19.49C190.5 19.45 190.4 19.4 190.29 19.36V19.37C190.29 19.37 190.29 19.39 190.28 19.39C189.82 19.2 189.05 18.8 189 18.88C188.96 18.95 189.81 19.43 190.29 19.74C190.29 19.82 190.29 19.88 190.27 19.92C190.2 20.01 189.8 19.89 189.74 19.98C189.73 19.99 189.74 20.03 189.74 20.07M193.26 18.28C193.14 18.33 192.81 17.88 192.59 17.69C192.59 17.53 192.6 17.39 192.66 17.36C192.79 17.3 192.92 17.14 193.06 17.05C193.18 17.59 193.35 18.24 193.26 18.28ZM194.93 17.54C194.76 17.57 194.56 17.27 194.39 17.32C194.31 17.34 194.18 17.14 194.04 16.92C194.12 16.89 194.19 16.86 194.26 16.85C194.42 16.81 194.52 16.39 194.68 16.36C194.75 16.35 194.87 16.64 195.01 16.99C195.01 17.3 194.99 17.54 194.93 17.55V17.54ZM196.48 16.8C196.35 16.81 196.25 17 196.14 17.07C196.27 16.9 196.36 16.24 196.5 16.23C196.54 16.23 196.6 16.29 196.65 16.39C196.6 16.61 196.55 16.79 196.48 16.79V16.8ZM199.7 17.76C199.7 17.76 199.68 17.73 199.67 17.69C199.83 17.25 200 16.8 200.09 16.82C200.12 16.82 200.15 16.89 200.16 16.98C199.98 17.37 199.79 17.78 199.7 17.76Z" fill="#FAB416"/>
<path d="M203.29 18.49C203.29 18.49 203.29 18.5 203.29 18.51C203.29 18.59 203.48 18.91 203.72 19.29C203.83 19.33 203.97 19.29 204.08 19.36C204.1 19.37 204.12 19.36 204.15 19.36C203.73 18.88 203.35 18.45 203.3 18.49" fill="#2D8DBB"/>
<path d="M204.68 19.12C204.58 19.06 204.3 19.32 204.14 19.37C204.69 19.99 205.31 20.71 205.36 20.67C205.47 20.6 206.17 19.42 206.27 19.35C206.15 19.28 204.79 19.2 204.67 19.13" fill="#2D8DBB"/>
<path d="M203.06 19.73C203.35 19.87 204.76 21.35 204.87 21.27C204.95 21.21 204.21 20.1 203.72 19.3C203.71 19.3 203.69 19.3 203.67 19.28C203.56 19.22 203.23 19.66 203.06 19.73Z" fill="#2D8DBB"/>
<path d="M203.01 19.72C203.02 19.72 203.04 19.72 203.06 19.72C203.04 19.71 203.02 19.71 203.01 19.72Z" fill="#2D8DBB"/>
<path d="M200.76 35.18C200.87 35.21 200.87 35.8 200.99 35.83C201.11 35.85 201.48 34.55 201.6 34.58C201.71 34.6 201.79 34.71 201.9 34.73C202.03 34.75 202.33 33.42 202.47 33.44C202.6 33.46 202.42 36.02 202.55 36.04C202.68 36.05 202.86 35.79 202.99 35.79C203.14 35.8 203.26 36.81 203.41 36.81C203.54 36.81 203.72 36.86 203.85 36.86C203.98 36.86 204.16 36.52 204.29 36.52C204.37 36.52 204.44 35.82 204.51 35.29C204.6 35.27 204.66 35.25 204.62 35.24C204.59 35.23 204.55 35.24 204.52 35.24C204.55 35.05 204.57 34.89 204.6 34.79C204.49 34.9 204.28 35.1 204.14 35.23C204.18 34.86 204.59 33.66 204.49 33.62C204.37 33.57 203.87 34.41 203.75 34.35C203.63 34.29 203.54 34.23 203.43 34.17C203.32 34.1 203.79 33.2 203.68 33.13C203.57 33.06 203 33.73 202.89 33.65C202.78 33.57 202.71 33.5 202.61 33.42C202.52 33.35 202.53 33.2 202.44 33.12C202.37 33.05 201.67 33.63 201.59 33.56C201.51 33.48 201.06 33.71 200.86 33.73C200.82 34.26 200.68 35.16 200.77 35.19L200.76 35.18ZM204.18 35.35C204.18 35.35 204.25 35.34 204.29 35.33C204.25 35.34 204.22 35.35 204.18 35.35Z" fill="#2D8DBB"/>
<path d="M203.28 18.51V18.49C203.33 18.3 203.35 18.15 203.32 18.14C203.2 18.08 202.69 18.9 202.57 18.85C202.43 18.79 202.37 18.6 202.23 18.54C202.11 18.49 201.62 19.48 201.5 19.44C201.37 19.39 201.45 18.88 201.32 18.84C201.2 18.8 201.73 16.65 201.6 16.61C201.48 16.58 200.49 17.01 200.37 16.98C200.37 17.11 201.01 17.92 201 18.06C200.99 18.19 200.74 18.31 200.72 18.44C200.7 18.58 199.13 18.45 199.11 18.59C199.09 18.71 199.02 18.77 199 18.89C198.98 19.01 200.77 19.5 200.74 19.63C200.71 19.75 201.02 19.97 200.99 20.1C200.96 20.23 200.31 20.18 200.27 20.3C200.24 20.41 199.64 20.33 199.61 20.44C199.57 20.55 200.17 20.87 200.13 20.97C200.08 21.1 200.65 21.46 200.6 21.59C200.55 21.71 200.25 21.74 200.2 21.86C200.14 21.98 200.07 22.1 200.01 22.22C199.95 22.34 200.41 22.73 200.35 22.84C200.28 22.97 200.05 23.05 199.98 23.17C199.91 23.3 199.22 23.07 199.14 23.19C199.06 23.31 198.11 22.83 198.03 22.95C197.95 23.07 198.96 23.94 198.88 24.05C198.8 24.16 197.56 23.35 197.48 23.46C197.39 23.57 197.46 23.74 197.37 23.84C197.28 23.94 197.47 24.25 197.37 24.34C197.28 24.44 196.92 24.2 196.82 24.29C196.72 24.38 198.49 26.65 198.39 26.73C198.29 26.81 197.36 25.93 197.26 26.01C197.16 26.09 197.13 26.34 197.03 26.41C196.92 26.48 196.84 26.67 196.73 26.73C196.62 26.79 195.43 24.76 195.32 24.81C195.21 24.86 196.22 27.39 196.1 27.43C195.99 27.48 195.39 26.31 195.27 26.34C195.15 26.38 195.19 26.99 195.08 27.02C194.95 27.05 194.68 26.48 194.55 26.5C194.43 26.52 194.49 28.38 194.37 28.39C194.24 28.4 193.96 25.16 193.83 25.16C193.71 25.16 193.73 25.1 193.61 25.09C193.49 25.09 193.08 27.71 192.96 27.69C192.84 27.67 192.87 26.74 192.76 26.71C192.66 26.68 192.96 25.4 192.86 25.37C192.74 25.33 192.22 26.48 192.11 26.43C192 26.38 191.86 26.36 191.76 26.31C191.71 26.28 191.74 26.12 191.79 25.94C191.76 25.96 191.74 25.97 191.71 25.99C191.74 25.95 191.78 25.9 191.81 25.84C191.87 25.62 191.94 25.39 191.88 25.35C191.81 25.3 191.47 25.66 191.23 25.88C191.37 25.96 191.5 26.04 191.56 26.07C191.06 26.36 190.31 26.74 190.34 26.82C190.39 26.95 191.53 26.64 191.58 26.78C191.64 26.91 189.75 27.94 189.81 28.07C189.87 28.2 190.41 28.14 190.47 28.27C190.54 28.4 192.22 27.67 192.29 27.8C192.36 27.92 192.23 28.14 192.31 28.26C192.38 28.38 193 28.14 193.08 28.26C193.15 28.38 192.29 29.1 192.37 29.22C192.44 29.32 191.62 30.08 191.69 30.18C191.77 30.28 193.39 29.23 193.47 29.34C193.55 29.44 192.44 30.48 192.51 30.58C192.59 30.68 193.22 30.34 193.3 30.43C193.38 30.53 193.33 30.74 193.42 30.84C193.51 30.93 193.09 31.52 193.18 31.62C193.27 31.71 193.98 31.21 194.07 31.3C194.16 31.39 194.01 31.74 194.11 31.82C194.2 31.91 193.71 32.68 193.81 32.76C193.91 32.84 195.85 30.76 195.95 30.84C196.05 30.92 194.12 33.51 194.23 33.58C194.33 33.66 196.33 31.26 196.43 31.34C196.53 31.42 195.06 33.66 195.17 33.74C195.27 33.81 196.59 32.11 196.7 32.18C196.81 32.25 196.68 32.64 196.79 32.71C196.9 32.78 197.5 31.97 197.61 32.04C197.72 32.1 196.95 33.7 197.06 33.76C197.17 33.82 198.05 32.42 198.16 32.48C198.27 32.54 197.3 34.79 197.41 34.84C197.53 34.9 198.01 34.21 198.13 34.26C198.25 34.31 198.46 34.16 198.58 34.21C198.7 34.26 198.96 33.95 199.08 34C199.2 34.05 199.21 34.38 199.33 34.42C199.45 34.46 199.79 33.83 199.91 33.87C200.03 33.91 200.27 33.5 200.39 33.53C200.51 33.57 200.69 33.28 200.82 33.31C200.85 33.31 200.85 33.39 200.85 33.51C201.21 33.06 202.46 31.88 202.39 31.8C202.31 31.69 200.38 32.98 200.31 32.87C200.23 32.76 201.08 32.02 201.01 31.91C200.94 31.8 199.16 32.64 199.1 32.52C199.04 32.4 201.44 31.01 201.38 30.89C201.32 30.76 200.32 31.08 200.26 30.95C200.21 30.82 198.77 31.15 198.72 31.02C198.68 30.89 200.42 30.18 200.38 30.04C200.34 29.9 200.83 29.68 200.8 29.54C200.77 29.4 200.03 29.43 200.01 29.29C199.99 29.16 200.5 28.99 200.48 28.87C200.47 28.74 199.46 28.7 199.46 28.57C199.46 28.44 199.05 28.3 199.05 28.17C199.05 28.04 198.49 27.85 198.49 27.72C198.49 27.59 199.66 27.52 199.68 27.39C199.69 27.26 198.68 26.98 198.7 26.85C198.72 26.72 199.41 26.67 199.44 26.54C199.46 26.41 199.89 26.36 199.91 26.23C199.94 26.1 201.58 26.43 201.61 26.3C201.64 26.17 200.46 25.72 200.5 25.59C200.54 25.46 200.94 25.49 200.99 25.37C201.04 25.24 200.05 24.71 200.1 24.59C200.15 24.47 199.44 23.97 199.5 23.84C199.56 23.72 201.92 24.75 201.99 24.63C202.05 24.51 202.08 24.43 202.15 24.31C202.22 24.19 200.53 23.03 200.61 22.92C200.67 22.82 202.57 23.92 202.64 23.81C202.71 23.71 201.18 22.51 201.25 22.4C201.32 22.3 202.24 22.83 202.32 22.73C202.4 22.63 202.73 22.77 202.81 22.67C202.89 22.57 201.06 20.83 201.15 20.73C201.23 20.63 202.32 21.4 202.41 21.31C202.49 21.22 203.48 22.04 203.56 21.96C203.64 21.88 202.18 20.23 202.26 20.14C202.34 20.07 202.56 20.1 202.64 20.03C202.75 19.93 202.88 19.81 202.99 19.71C202.91 19.65 203.15 18.95 203.27 18.5" fill="#2D8DBB"/>
<path d="M219.12 25.5C219.12 25.5 219.12 25.5 219.11 25.51C219.11 25.51 219.12 25.51 219.12 25.5Z" fill="#BF3942"/>
<path d="M218.71 26C218.71 26 219.04 25.59 219.11 25.51C219.03 25.56 218.68 25.55 218.38 25.55C218.53 25.81 218.66 26.02 218.71 26Z" fill="#BF3942"/>
<path d="M217.51 26.53C217.64 26.6 217.76 26.67 217.84 26.73C217.84 26.56 217.84 26.35 217.82 26.14C217.66 26.11 217.49 26.08 217.32 26.06C217.38 26.18 217.44 26.36 217.5 26.54" fill="#BF3942"/>
<path d="M205.61 18.46C205.52 18.52 205.71 19.53 205.61 19.59C205.66 19.62 205.94 19.41 206.23 19.19C205.92 18.78 205.66 18.43 205.61 18.46Z" fill="#BF3942"/>
<path d="M217.96 26.84C217.96 26.84 217.92 26.77 217.85 26.72C217.85 26.97 217.84 27.14 217.8 27.15C217.73 27.15 217.63 26.84 217.52 26.53C217.23 26.37 216.9 26.2 216.75 26.09C216.78 26.08 216.81 26.04 216.82 25.98C216.94 25.98 217.13 26.01 217.34 26.05C217.3 25.96 217.26 25.9 217.23 25.9C217.19 25.9 217.15 25.86 217.12 25.8C217.15 25.8 216.63 25.71 216.66 25.72C216.91 25.72 217.11 25.72 217.07 25.69C217.05 25.64 217.04 25.63 217.01 25.58C217.01 25.49 217.01 25.41 217.03 25.32C217.05 25.23 217.46 25.22 217.81 25.19C217.81 25.46 217.83 25.81 217.84 26.14C218.19 26.2 218.49 26.24 218.5 26.19C218.54 26.06 217.89 25.75 217.92 25.62C217.93 25.57 218.14 25.57 218.38 25.57C218.31 25.44 218.22 25.29 218.15 25.16C218.23 25.14 218.27 25.12 218.28 25.09C218.3 24.94 218.2 24.75 218.22 24.6C218.24 24.45 217.39 24.2 217.4 24.06C217.41 23.91 218.34 23.82 218.34 23.67C218.34 23.53 217.33 23.42 217.34 23.27C217.29 23.15 218.11 22.73 218.05 22.61C217.99 22.49 216.72 22.99 216.66 22.87C216.6 22.75 217.66 22.01 217.59 21.9C217.52 21.79 216.46 22.31 216.39 22.2C216.32 22.09 216.77 21.63 216.69 21.53C216.61 21.42 216.33 21.49 216.24 21.39C216.15 21.29 216.65 20.67 216.56 20.57C216.49 20.49 215.89 20.89 215.81 20.81C215.71 20.71 215.88 20.34 215.78 20.25C215.67 20.15 215.6 19.98 215.48 19.89C215.36 19.8 215.53 19.29 215.41 19.2C215.29 19.11 215.18 18.93 215.06 18.85C214.94 18.77 214.36 19.39 214.23 19.32C214.1 19.25 214.21 18.69 214.08 18.63C213.96 18.57 213.93 18.24 213.81 18.19C213.68 18.13 213.47 18.14 213.33 18.09C213.21 18.04 212.76 18.91 212.64 18.87C212.52 18.83 212.59 18.08 212.46 18.04C212.37 18.02 212.16 18.53 212 18.82C211.95 18.82 211.86 18.82 211.74 18.84C211.69 18.64 211.66 18.35 211.57 18.34C211.49 18.33 211.36 18.67 211.25 18.92C211.17 18.93 211.09 18.95 211 18.96C210.93 18.64 210.89 18.03 210.79 18.03C210.66 18.03 210.51 18.72 210.38 18.72C210.29 18.72 210.2 18.64 210.11 18.6C210.18 18.48 210.46 18.3 210.44 18.2C210.43 18.14 210.24 18.37 210.07 18.59C210.07 18.59 210.1 18.66 210.09 18.66C210.08 18.72 210.05 18.64 209.94 18.72C209.92 18.75 209.82 18.9 209.8 18.93L209.76 18.89C209.75 18.89 209.74 18.89 209.73 18.86C209.76 18.84 209.78 18.82 209.8 18.8C209.86 18.69 209.91 18.57 209.98 18.57C209.99 18.57 210.01 18.57 210.02 18.57C210.02 18.57 210.02 18.56 210.02 18.55C210.02 18.52 209.92 18.47 209.78 18.42C209.85 18.06 209.96 17.61 209.88 17.63C209.74 17.66 209.41 16.84 209.27 16.87C209.19 16.89 209.29 17.65 209.36 18.29C209.16 18.23 208.98 18.17 208.86 18.12C209 18.26 209.22 18.59 209.4 18.8C209.41 18.99 209.4 19.12 209.38 19.13C209.25 19.17 208.9 18.36 208.76 18.4C208.63 18.44 208.1 17.37 207.97 17.42C207.84 17.47 207.92 18.17 207.79 18.22C207.67 18.27 207.75 18.78 207.63 18.84C207.51 18.89 206.96 18.04 206.84 18.09C206.72 18.15 206.26 17.62 206.14 17.68C206.09 17.71 206.33 18.25 206.6 18.85C206.45 18.98 206.29 19.13 206.21 19.2C206.3 19.31 206.38 19.43 206.47 19.55C206.52 19.46 206.63 19.31 206.74 19.16C206.8 19.29 206.86 19.42 206.91 19.54C206.9 19.66 206.89 19.75 206.89 19.81C206.85 19.85 206.81 19.9 206.76 19.94C206.86 20.07 207.07 20.34 207.02 20.28C206.92 20.5 206.85 20.7 206.89 20.73C206.92 20.75 207.02 20.7 207.14 20.61C207.14 20.68 207.12 20.73 207.08 20.76C206.96 20.85 206.69 20.68 206.58 20.77C206.54 20.8 206.39 20.68 206.19 20.52C206.37 20.34 206.57 20.12 206.75 19.93C206.66 19.8 206.56 19.67 206.46 19.54C206.31 19.81 206.13 20.11 205.99 20.36C205.57 20 205.08 19.54 205.01 19.6C204.92 19.68 204.96 19.94 204.87 20.03C204.76 20.13 205.26 20.88 205.16 20.98C205.05 21.08 204.93 21.15 204.83 21.26C204.73 21.36 204.62 21.45 204.53 21.55C204.43 21.66 203.66 21.18 203.57 21.29C203.48 21.4 204.68 22.55 204.59 22.66C204.5 22.77 203.5 22.17 203.42 22.28C203.34 22.39 204.57 23.4 204.49 23.51C204.41 23.62 204.39 23.71 204.31 23.82C204.24 23.94 202.72 23.16 202.65 23.27C202.58 23.39 203.2 23.88 203.14 23.99C203.08 24.11 201.3 23.33 201.24 23.45C201.18 23.58 203.01 24.65 202.96 24.78C202.9 24.91 200.96 24.31 200.91 24.45C200.86 24.58 202.95 25.48 202.91 25.62C202.86 25.76 200.62 25.25 200.54 25.37C200.43 25.54 200.41 25.7 200.38 25.84C200.35 25.98 203.11 26.68 203.08 26.81C203.06 26.95 201.92 26.88 201.9 27.02C201.88 27.16 201.38 27.25 201.37 27.38C201.37 27.52 200.18 27.63 200.17 27.77C200.17 27.91 200.82 28.1 200.83 28.24C200.83 28.37 202.23 28.45 202.24 28.58C202.24 28.72 201.15 28.96 201.16 29.09C201.18 29.22 201.36 29.35 201.38 29.49C201.4 29.62 202.19 29.59 202.22 29.72C202.25 29.85 201.44 30.2 201.48 30.33C201.52 30.46 202.5 30.28 202.55 30.4C202.59 30.52 201.1 31.25 201.15 31.38C201.2 31.5 202.9 30.9 202.96 31.02C203.01 31.13 203.33 31.05 203.38 31.15C203.44 31.25 203.24 31.45 203.3 31.55C203.36 31.65 202.51 32.32 202.58 32.42C202.64 32.52 203.57 31.99 203.64 32.09C203.71 32.19 204.25 31.84 204.33 31.94C204.41 32.03 204.41 32.1 204.49 32.19C204.56 32.27 203.3 33.6 203.37 33.68C203.47 33.78 204.3 33.1 204.4 33.2C204.5 33.29 204.64 33.28 204.75 33.36C204.85 33.44 203.74 35.17 203.85 35.25C203.96 35.33 204.19 35.37 204.3 35.44C204.41 35.51 205.23 34.49 205.34 34.55C205.46 34.61 205.47 34.88 205.59 34.94C205.71 35 206.22 34.19 206.34 34.24C206.45 34.29 206.71 33.84 206.82 33.88C206.93 33.92 206.13 36.6 206.24 36.64C206.34 36.67 206.89 35.67 207 35.7C207.14 35.7 207.43 36.49 207.57 36.48C207.7 36.47 207.63 34.36 207.76 34.35C207.9 34.33 208.34 36.5 208.47 36.48C208.6 36.46 208.79 36.48 208.92 36.45C209.06 36.43 209.16 36.08 209.3 36.05C209.43 36.02 209.14 34.05 209.27 34.02C209.4 33.99 210.05 35.98 210.18 35.95C210.31 35.92 210.19 34.93 210.32 34.89C210.45 34.85 210.43 34.34 210.56 34.3C210.69 34.26 211.23 35.38 211.36 35.34C211.48 35.29 210.86 33.26 210.98 33.21C211.02 33.19 211.1 33.26 211.19 33.35C211.11 33.33 211.06 33.32 211.06 33.33C211.01 33.41 211.67 34.54 211.62 34.61C211.69 34.57 211.62 34.11 211.56 33.66H211.58C211.7 33.61 212.17 34.33 212.29 34.27C212.41 34.22 212.42 34.1 212.46 33.99C212.46 33.99 212.49 33.91 212.5 33.88C212.53 33.9 212.59 33.92 212.63 33.95C212.63 33.95 212.74 33.95 212.82 33.95C213.06 34.14 213.4 34.48 213.48 34.43C213.56 34.38 213.3 33.83 213.13 33.4C213.44 33.56 213.71 33.7 213.74 33.65C213.77 33.59 213.41 33.35 213.01 33.08C212.97 32.97 212.96 32.9 212.99 32.88C213.1 32.8 213.25 32.8 213.36 32.71C213.47 32.63 214.62 33.89 214.73 33.81C214.79 33.76 214.39 33.15 214.02 32.57C214.2 32.51 214.49 32.46 214.52 32.36C214.54 32.28 213.98 32.04 213.57 31.84C213.47 31.66 213.41 31.54 213.44 31.52C213.53 31.44 213.48 31.25 213.55 31.14C213.33 31.19 212.88 31.22 212.57 31.26C212.32 31.16 212.08 31.07 212.09 31C212.09 30.93 212.97 30.95 213.7 30.96C213.69 31 213.68 31.04 213.68 31.07C213.68 31.08 213.66 31.1 213.63 31.11C213.89 31.22 214.9 32.15 214.99 32.07C215.08 31.98 214.37 31.07 214.47 30.98C214.56 30.89 215.28 31.4 215.37 31.31C215.47 31.2 215.62 31.13 215.71 31.02C215.8 30.92 214.52 29.7 214.61 29.59C214.69 29.49 216.59 30.84 216.67 30.74C216.75 30.64 215.09 29.24 215.16 29.13C215.24 29.02 215.17 28.87 215.24 28.76C215.32 28.65 216.53 29.32 216.6 29.21C216.67 29.1 216.45 28.82 216.52 28.71C216.59 28.6 217.1 28.75 217.16 28.63C217.22 28.51 216.01 27.74 216.07 27.63C216.13 27.51 218.1 28.35 218.15 28.23C218.21 28.11 218.25 27.96 218.31 27.84C218.36 27.72 218.72 27.7 218.77 27.57C218.82 27.45 217.86 26.92 217.9 26.8L217.96 26.84ZM207.36 21.47C207.26 21.39 208.07 20.16 208.15 19.85C208.26 19.99 208.09 20.48 208.22 20.59C208.25 20.61 208.29 20.62 208.34 20.61C207.88 21.05 207.42 21.51 207.36 21.46V21.47ZM208.27 21.63C208.21 21.67 208.17 21.68 208.15 21.67C208.08 21.61 208.55 20.92 208.88 20.39C208.94 20.39 208.98 20.39 209.01 20.41C209.08 20.48 208.61 21.12 208.27 21.63ZM210.37 20.46C210.32 20.41 210.17 20.46 210.02 20.51C210 20.46 210.27 20.3 210.63 20.1C210.6 20.21 210.54 20.33 210.57 20.42C210.5 20.44 210.44 20.46 210.38 20.47L210.37 20.46ZM210.34 21.7C210.34 21.7 210.31 21.6 210.32 21.54C210.49 21.52 210.61 21.51 210.64 21.56C210.72 21.7 210.49 22.01 210.49 22.19C210.42 22.19 210.37 22.18 210.34 22.15C210.34 22.15 210.32 22.15 210.3 22.15C210.3 22 210.4 21.8 210.35 21.7H210.34ZM210.24 23.44C210.24 23.44 210.32 23.27 210.47 23.09C210.53 23.17 210.6 23.25 210.66 23.33C210.44 23.42 210.26 23.49 210.23 23.44H210.24ZM213.05 33.55C213.01 33.65 212.82 33.73 212.73 33.82C212.67 33.82 212.6 33.84 212.59 33.82C212.59 33.68 212.19 33.1 212.21 32.98C212.59 33.21 213.07 33.47 213.04 33.54L213.05 33.55ZM212.1 27C212.12 27.06 211.99 27.17 211.83 27.28C211.65 27.29 211.52 27.28 211.51 27.24C211.46 27.1 211.77 26.88 211.72 26.74C211.68 26.64 212.29 26.3 212.6 26.06C212.83 26.06 213.06 26.06 213.08 26.12C213.14 26.26 212.06 26.85 212.11 26.99L212.1 27ZM213.88 30.23C213.88 30.36 213.82 30.54 213.81 30.67C213.81 30.67 213.81 30.67 213.81 30.68C213.34 30.58 212.87 30.48 212.87 30.41C212.87 30.28 213.11 30.18 213.11 30.04C213.11 29.9 212.34 29.84 212.33 29.71C212.33 29.65 212.76 29.56 213.26 29.46C213.43 29.57 214.1 29.65 214.11 29.76C214.12 29.89 213.88 30.09 213.88 30.22V30.23ZM214.67 25.81C214.54 25.74 214.41 25.51 214.28 25.43C214.27 25.43 214.26 25.41 214.25 25.4C214.46 25.13 214.69 24.84 214.76 24.87C214.9 24.93 214.87 25.24 215 25.29C215.02 25.29 215.03 25.33 215.04 25.36C214.85 25.64 214.7 25.83 214.66 25.81H214.67ZM215.79 25.78C215.79 25.78 215.79 25.55 215.85 25.28C215.92 25.32 215.98 25.37 216.06 25.38C215.94 25.62 215.84 25.79 215.79 25.78Z" fill="#BF3942"/>
<path d="M207.03 10C207.07 10.1 206.59 10.34 206.6 10.46C206.6 10.57 206.85 10.68 206.82 10.8C206.81 10.9 206.71 10.99 206.67 11.09C206.63 11.19 206.61 11.3 206.56 11.4C206.52 11.48 206.33 11.62 206.28 11.7C206.39 11.74 206.56 11.94 206.67 11.98C206.77 12.01 206.97 11.75 207.08 11.78C207.19 11.81 207.2 12.23 207.3 12.26C207.39 12.28 207.56 11.96 207.66 11.98C207.78 12.01 207.9 11.99 208.02 12.01C208.14 12.03 208.24 12.14 208.35 12.16C208.46 12.18 208.56 12.36 208.67 12.38C208.77 12.39 208.89 12.14 208.98 12.15C209.09 12.15 209.19 12.51 209.28 12.51C209.37 12.51 209.47 12.25 209.55 12.24C209.55 12.13 209.17 11.91 209.2 11.81C209.22 11.71 209.88 11.81 209.92 11.71C209.96 11.61 210.08 11.62 210.13 11.53C210.19 11.45 209.97 11.19 210.04 11.12C210.13 11.03 210.58 10.92 210.68 10.85C210.57 10.79 210.18 10.56 210.07 10.51C209.96 10.45 209.64 10.83 209.53 10.78C209.43 10.73 209.37 10.61 209.26 10.57C209.16 10.53 209.23 10.04 209.13 10C209.03 9.96001 208.93 9.86001 208.83 9.82001C208.73 9.78001 208.41 10.34 208.3 10.31C208.19 10.27 208.21 9.86001 208.1 9.83001C207.99 9.80001 207.8 10.07 207.69 10.04C207.58 10.01 207.59 9.51001 207.48 9.48001C207.37 9.45001 207.2 9.68001 207.09 9.65001C206.98 9.62001 206.93 9.28001 206.82 9.26001C206.72 9.24001 206.58 9.44001 206.48 9.43001C206.44 9.43001 206.52 9.47001 206.48 9.46001C206.57 9.54001 206.46 9.76001 206.52 9.85001C206.59 9.94001 207 9.89001 207.04 9.98001" fill="#F16F24"/>
</g>
<defs>
<clipPath id="clip0_2130_41564">
<rect width="227.4" height="55.18" fill="white"/>
</clipPath>
</defs>
</svg>
